M48
; DRILL file {KiCad (5.1.5)-3} date 07/12/21 14:22:31
; FORMAT={-:-/ absolute / inch / decimal}
; #@! TF.CreationDate,2021-07-12T14:22:31+05:30
; #@! TF.GenerationSoftware,Kicad,Pcbnew,(5.1.5)-3
FMAT,2
INCH
T1C0.0157
T2C0.0197
T3C0.0394
T4C0.0433
T5C0.0787
T6C0.1378
%
G90
G05
T1
X2.8898Y-1.2323
X2.8898Y-1.2717
X2.9291Y-1.2323
X2.9291Y-1.2717
X2.9685Y-1.2323
X2.9685Y-1.2717
X3.0079Y-1.2323
X3.0079Y-1.2717
X3.0157Y-1.752
X3.0157Y-2.0669
X3.0157Y-2.185
X3.0157Y-2.7992
X3.0472Y-1.2323
X3.0472Y-1.2717
X3.0866Y-1.2323
X3.0866Y-1.2717
X3.126Y-1.2323
X3.126Y-1.2717
X3.1496Y-1.9055
X3.1654Y-1.2323
X3.1654Y-1.2717
X3.2047Y-1.2323
X3.2047Y-1.2717
X3.2441Y-1.2323
X3.2441Y-1.2717
X3.2835Y-2.185
X3.2835Y-2.7992
X3.2874Y-1.752
X3.3661Y-1.752
X3.4646Y-2.185
X3.5Y-3.1693
X3.5669Y-1.752
X3.5669Y-2.185
X3.5669Y-2.7992
X3.6693Y-1.9173
X3.7087Y-2.0669
X3.8346Y-1.752
X3.8346Y-2.185
X3.8346Y-2.7992
X3.9646Y-1.9094
X4.1181Y-1.752
X4.1181Y-2.185
X4.1181Y-2.7992
X4.2638Y-2.0669
X4.3661Y-1.9055
X4.3858Y-1.752
X4.3858Y-2.185
X4.3858Y-2.7992
X4.4646Y-1.9055
X4.4685Y-2.6811
X4.7559Y-3.2047
X4.7559Y-3.2677
X5.122Y-1.2323
X5.122Y-1.2717
X5.1614Y-1.2323
X5.1614Y-1.2717
X5.2008Y-1.2323
X5.2008Y-1.2717
X5.2402Y-1.2323
X5.2402Y-1.2717
X5.2795Y-1.2323
X5.2795Y-1.2717
X5.3189Y-1.2323
X5.3189Y-1.2717
X5.3583Y-1.2323
X5.3583Y-1.2717
X5.3976Y-1.2323
X5.3976Y-1.2717
X5.437Y-1.2323
X5.437Y-1.2717
X5.4764Y-1.2323
X5.4764Y-1.2717
X5.5157Y-1.8504
T2
X5.6053Y-1.3386
X5.6356Y-1.2655
X5.6356Y-1.4117
X5.7087Y-1.2352
X5.7087Y-1.4419
X5.7817Y-1.2655
X5.7817Y-1.4117
X5.812Y-1.3386
X2.5738Y-3.3858
X2.6041Y-3.3127
X2.6041Y-3.4589
X2.6772Y-3.2825
X2.6772Y-3.4892
X2.7502Y-3.3127
X2.7502Y-3.4589
X2.7805Y-3.3858
X5.6053Y-5.1575
X5.6356Y-5.0844
X5.6356Y-5.2306
X5.7087Y-5.0541
X5.7087Y-5.2608
X5.7817Y-5.0844
X5.7817Y-5.2306
X5.812Y-5.1575
X2.5738Y-1.3386
X2.6041Y-1.2655
X2.6041Y-1.4117
X2.6772Y-1.2352
X2.6772Y-1.4419
X2.7502Y-1.2655
X2.7502Y-1.4117
X2.7805Y-1.3386
T3
X3.5Y-3.4055
X3.6Y-3.4055
X3.7Y-3.4055
X3.8Y-3.4055
X3.9Y-3.4055
T4
X5.4134Y-1.5748
X5.4134Y-2.1457
X5.5118Y-2.1457
X5.6102Y-1.5748
X5.6102Y-2.1457
X5.4134Y-3.4185
X5.4134Y-3.9894
X5.5118Y-3.4185
X5.6102Y-3.4185
X5.6102Y-3.9894
X5.4134Y-2.4866
X5.4134Y-3.0575
X5.5118Y-2.4866
X5.6102Y-2.4866
X5.6102Y-3.0575
X5.4134Y-4.3504
X5.4134Y-4.9213
X5.5118Y-4.3504
X5.6102Y-4.3504
X5.6102Y-4.9213
T6
X5.7087Y-1.3386
X2.6772Y-3.3858
X5.7087Y-5.1575
X2.6772Y-1.3386
T5
G00X5.2874Y-1.8346
M15
G01X5.2874Y-1.8661
M16
G05
G00X5.7362Y-1.8346
M15
G01X5.7362Y-1.8661
M16
G05
G00X5.2874Y-3.7295
M15
G01X5.2874Y-3.698
M16
G05
G00X5.7362Y-3.7295
M15
G01X5.7362Y-3.698
M16
G05
G00X5.2874Y-2.7976
M15
G01X5.2874Y-2.7661
M16
G05
G00X5.7362Y-2.7976
M15
G01X5.7362Y-2.7661
M16
G05
G00X5.2874Y-4.6614
M15
G01X5.2874Y-4.6299
M16
G05
G00X5.7362Y-4.6614
M15
G01X5.7362Y-4.6299
M16
G05
T0
M30
