G04 #@! TF.GenerationSoftware,KiCad,Pcbnew,(5.1.5)-3*
G04 #@! TF.CreationDate,2021-07-12T14:21:50+05:30*
G04 #@! TF.ProjectId,RB_Console,52425f43-6f6e-4736-9f6c-652e6b696361,rev?*
G04 #@! TF.SameCoordinates,Original*
G04 #@! TF.FileFunction,Legend,Bot*
G04 #@! TF.FilePolarity,Positive*
%FSLAX46Y46*%
G04 Gerber Fmt 4.6, Leading zero omitted, Abs format (unit mm)*
G04 Created by KiCad (PCBNEW (5.1.5)-3) date 2021-07-12 14:21:50*
%MOMM*%
%LPD*%
G04 APERTURE LIST*
%ADD10C,0.250000*%
%ADD11C,0.010000*%
%ADD12C,0.120000*%
%ADD13C,0.150000*%
G04 APERTURE END LIST*
D10*
X110535714Y-38178571D02*
X110035714Y-39678571D01*
X109535714Y-38178571D01*
X109035714Y-38178571D02*
X109035714Y-39392857D01*
X108964285Y-39535714D01*
X108892857Y-39607142D01*
X108750000Y-39678571D01*
X108464285Y-39678571D01*
X108321428Y-39607142D01*
X108250000Y-39535714D01*
X108178571Y-39392857D01*
X108178571Y-38178571D01*
X107535714Y-38321428D02*
X107464285Y-38250000D01*
X107321428Y-38178571D01*
X106964285Y-38178571D01*
X106821428Y-38250000D01*
X106750000Y-38321428D01*
X106678571Y-38464285D01*
X106678571Y-38607142D01*
X106750000Y-38821428D01*
X107607142Y-39678571D01*
X106678571Y-39678571D01*
X106035714Y-39678571D02*
X106035714Y-38178571D01*
X105678571Y-38178571D01*
X105464285Y-38250000D01*
X105321428Y-38392857D01*
X105250000Y-38535714D01*
X105178571Y-38821428D01*
X105178571Y-39035714D01*
X105250000Y-39321428D01*
X105321428Y-39464285D01*
X105464285Y-39607142D01*
X105678571Y-39678571D01*
X106035714Y-39678571D01*
X103821428Y-39678571D02*
X104535714Y-39678571D01*
X104535714Y-38178571D01*
X103321428Y-38892857D02*
X102821428Y-38892857D01*
X102607142Y-39678571D02*
X103321428Y-39678571D01*
X103321428Y-38178571D01*
X102607142Y-38178571D01*
X128821428Y-31278571D02*
X128821428Y-32778571D01*
X128821428Y-31350000D02*
X128678571Y-31278571D01*
X128392857Y-31278571D01*
X128250000Y-31350000D01*
X128178571Y-31421428D01*
X128107142Y-31564285D01*
X128107142Y-31992857D01*
X128178571Y-32135714D01*
X128250000Y-32207142D01*
X128392857Y-32278571D01*
X128678571Y-32278571D01*
X128821428Y-32207142D01*
X127464285Y-32278571D02*
X127464285Y-31278571D01*
X127464285Y-30778571D02*
X127535714Y-30850000D01*
X127464285Y-30921428D01*
X127392857Y-30850000D01*
X127464285Y-30778571D01*
X127464285Y-30921428D01*
X126750000Y-32278571D02*
X126750000Y-30778571D01*
X126750000Y-31492857D02*
X125892857Y-31492857D01*
X125892857Y-32278571D02*
X125892857Y-30778571D01*
X125178571Y-32278571D02*
X125178571Y-30778571D01*
X124607142Y-30778571D01*
X124464285Y-30850000D01*
X124392857Y-30921428D01*
X124321428Y-31064285D01*
X124321428Y-31278571D01*
X124392857Y-31421428D01*
X124464285Y-31492857D01*
X124607142Y-31564285D01*
X125178571Y-31564285D01*
X123750000Y-32207142D02*
X123535714Y-32278571D01*
X123178571Y-32278571D01*
X123035714Y-32207142D01*
X122964285Y-32135714D01*
X122892857Y-31992857D01*
X122892857Y-31850000D01*
X122964285Y-31707142D01*
X123035714Y-31635714D01*
X123178571Y-31564285D01*
X123464285Y-31492857D01*
X123607142Y-31421428D01*
X123678571Y-31350000D01*
X123750000Y-31207142D01*
X123750000Y-31064285D01*
X123678571Y-30921428D01*
X123607142Y-30850000D01*
X123464285Y-30778571D01*
X123107142Y-30778571D01*
X122892857Y-30850000D01*
X122250000Y-32278571D02*
X122250000Y-30778571D01*
X121892857Y-30778571D01*
X121678571Y-30850000D01*
X121535714Y-30992857D01*
X121464285Y-31135714D01*
X121392857Y-31421428D01*
X121392857Y-31635714D01*
X121464285Y-31921428D01*
X121535714Y-32064285D01*
X121678571Y-32207142D01*
X121892857Y-32278571D01*
X122250000Y-32278571D01*
X119892857Y-32278571D02*
X120392857Y-31564285D01*
X120750000Y-32278571D02*
X120750000Y-30778571D01*
X120178571Y-30778571D01*
X120035714Y-30850000D01*
X119964285Y-30921428D01*
X119892857Y-31064285D01*
X119892857Y-31278571D01*
X119964285Y-31421428D01*
X120035714Y-31492857D01*
X120178571Y-31564285D01*
X120750000Y-31564285D01*
X117250000Y-32135714D02*
X117321428Y-32207142D01*
X117535714Y-32278571D01*
X117678571Y-32278571D01*
X117892857Y-32207142D01*
X118035714Y-32064285D01*
X118107142Y-31921428D01*
X118178571Y-31635714D01*
X118178571Y-31421428D01*
X118107142Y-31135714D01*
X118035714Y-30992857D01*
X117892857Y-30850000D01*
X117678571Y-30778571D01*
X117535714Y-30778571D01*
X117321428Y-30850000D01*
X117250000Y-30921428D01*
X116392857Y-32278571D02*
X116535714Y-32207142D01*
X116607142Y-32135714D01*
X116678571Y-31992857D01*
X116678571Y-31564285D01*
X116607142Y-31421428D01*
X116535714Y-31350000D01*
X116392857Y-31278571D01*
X116178571Y-31278571D01*
X116035714Y-31350000D01*
X115964285Y-31421428D01*
X115892857Y-31564285D01*
X115892857Y-31992857D01*
X115964285Y-32135714D01*
X116035714Y-32207142D01*
X116178571Y-32278571D01*
X116392857Y-32278571D01*
X115250000Y-31278571D02*
X115250000Y-32278571D01*
X115250000Y-31421428D02*
X115178571Y-31350000D01*
X115035714Y-31278571D01*
X114821428Y-31278571D01*
X114678571Y-31350000D01*
X114607142Y-31492857D01*
X114607142Y-32278571D01*
X114107142Y-31278571D02*
X113535714Y-31278571D01*
X113892857Y-30778571D02*
X113892857Y-32064285D01*
X113821428Y-32207142D01*
X113678571Y-32278571D01*
X113535714Y-32278571D01*
X113035714Y-32278571D02*
X113035714Y-31278571D01*
X113035714Y-31564285D02*
X112964285Y-31421428D01*
X112892857Y-31350000D01*
X112750000Y-31278571D01*
X112607142Y-31278571D01*
X111892857Y-32278571D02*
X112035714Y-32207142D01*
X112107142Y-32135714D01*
X112178571Y-31992857D01*
X112178571Y-31564285D01*
X112107142Y-31421428D01*
X112035714Y-31350000D01*
X111892857Y-31278571D01*
X111678571Y-31278571D01*
X111535714Y-31350000D01*
X111464285Y-31421428D01*
X111392857Y-31564285D01*
X111392857Y-31992857D01*
X111464285Y-32135714D01*
X111535714Y-32207142D01*
X111678571Y-32278571D01*
X111892857Y-32278571D01*
X110535714Y-32278571D02*
X110678571Y-32207142D01*
X110749999Y-32064285D01*
X110749999Y-30778571D01*
X109749999Y-32278571D02*
X109892857Y-32207142D01*
X109964285Y-32064285D01*
X109964285Y-30778571D01*
X108607142Y-32207142D02*
X108749999Y-32278571D01*
X109035714Y-32278571D01*
X109178571Y-32207142D01*
X109249999Y-32064285D01*
X109249999Y-31492857D01*
X109178571Y-31350000D01*
X109035714Y-31278571D01*
X108749999Y-31278571D01*
X108607142Y-31350000D01*
X108535714Y-31492857D01*
X108535714Y-31635714D01*
X109249999Y-31778571D01*
X107892857Y-32278571D02*
X107892857Y-31278571D01*
X107892857Y-31564285D02*
X107821428Y-31421428D01*
X107749999Y-31350000D01*
X107607142Y-31278571D01*
X107464285Y-31278571D01*
X106035714Y-31278571D02*
X105464285Y-31278571D01*
X105821428Y-32278571D02*
X105821428Y-30992857D01*
X105749999Y-30850000D01*
X105607142Y-30778571D01*
X105464285Y-30778571D01*
X104749999Y-32278571D02*
X104892857Y-32207142D01*
X104964285Y-32135714D01*
X105035714Y-31992857D01*
X105035714Y-31564285D01*
X104964285Y-31421428D01*
X104892857Y-31350000D01*
X104749999Y-31278571D01*
X104535714Y-31278571D01*
X104392857Y-31350000D01*
X104321428Y-31421428D01*
X104249999Y-31564285D01*
X104249999Y-31992857D01*
X104321428Y-32135714D01*
X104392857Y-32207142D01*
X104535714Y-32278571D01*
X104749999Y-32278571D01*
X103607142Y-32278571D02*
X103607142Y-31278571D01*
X103607142Y-31564285D02*
X103535714Y-31421428D01*
X103464285Y-31350000D01*
X103321428Y-31278571D01*
X103178571Y-31278571D01*
X100678571Y-32278571D02*
X101178571Y-31564285D01*
X101535714Y-32278571D02*
X101535714Y-30778571D01*
X100964285Y-30778571D01*
X100821428Y-30850000D01*
X100749999Y-30921428D01*
X100678571Y-31064285D01*
X100678571Y-31278571D01*
X100749999Y-31421428D01*
X100821428Y-31492857D01*
X100964285Y-31564285D01*
X101535714Y-31564285D01*
X99392857Y-32278571D02*
X99392857Y-31492857D01*
X99464285Y-31350000D01*
X99607142Y-31278571D01*
X99892857Y-31278571D01*
X100035714Y-31350000D01*
X99392857Y-32207142D02*
X99535714Y-32278571D01*
X99892857Y-32278571D01*
X100035714Y-32207142D01*
X100107142Y-32064285D01*
X100107142Y-31921428D01*
X100035714Y-31778571D01*
X99892857Y-31707142D01*
X99535714Y-31707142D01*
X99392857Y-31635714D01*
X98035714Y-32278571D02*
X98035714Y-30778571D01*
X98035714Y-32207142D02*
X98178571Y-32278571D01*
X98464285Y-32278571D01*
X98607142Y-32207142D01*
X98678571Y-32135714D01*
X98749999Y-31992857D01*
X98749999Y-31564285D01*
X98678571Y-31421428D01*
X98607142Y-31350000D01*
X98464285Y-31278571D01*
X98178571Y-31278571D01*
X98035714Y-31350000D01*
X97321428Y-32278571D02*
X97321428Y-31278571D01*
X97321428Y-30778571D02*
X97392857Y-30850000D01*
X97321428Y-30921428D01*
X97249999Y-30850000D01*
X97321428Y-30778571D01*
X97321428Y-30921428D01*
X96392857Y-32278571D02*
X96535714Y-32207142D01*
X96607142Y-32135714D01*
X96678571Y-31992857D01*
X96678571Y-31564285D01*
X96607142Y-31421428D01*
X96535714Y-31350000D01*
X96392857Y-31278571D01*
X96178571Y-31278571D01*
X96035714Y-31350000D01*
X95964285Y-31421428D01*
X95892857Y-31564285D01*
X95892857Y-31992857D01*
X95964285Y-32135714D01*
X96035714Y-32207142D01*
X96178571Y-32278571D01*
X96392857Y-32278571D01*
X94749999Y-31492857D02*
X94535714Y-31564285D01*
X94464285Y-31635714D01*
X94392857Y-31778571D01*
X94392857Y-31992857D01*
X94464285Y-32135714D01*
X94535714Y-32207142D01*
X94678571Y-32278571D01*
X95249999Y-32278571D01*
X95249999Y-30778571D01*
X94749999Y-30778571D01*
X94607142Y-30850000D01*
X94535714Y-30921428D01*
X94464285Y-31064285D01*
X94464285Y-31207142D01*
X94535714Y-31350000D01*
X94607142Y-31421428D01*
X94749999Y-31492857D01*
X95249999Y-31492857D01*
X93178571Y-32207142D02*
X93321428Y-32278571D01*
X93607142Y-32278571D01*
X93749999Y-32207142D01*
X93821428Y-32064285D01*
X93821428Y-31492857D01*
X93749999Y-31350000D01*
X93607142Y-31278571D01*
X93321428Y-31278571D01*
X93178571Y-31350000D01*
X93107142Y-31492857D01*
X93107142Y-31635714D01*
X93821428Y-31778571D01*
X92464285Y-32278571D02*
X92464285Y-31278571D01*
X92464285Y-31564285D02*
X92392857Y-31421428D01*
X92321428Y-31350000D01*
X92178571Y-31278571D01*
X92035714Y-31278571D01*
X91535714Y-32278571D02*
X91535714Y-31278571D01*
X91535714Y-31564285D02*
X91464285Y-31421428D01*
X91392857Y-31350000D01*
X91249999Y-31278571D01*
X91107142Y-31278571D01*
X90749999Y-31278571D02*
X90392857Y-32278571D01*
X90035714Y-31278571D02*
X90392857Y-32278571D01*
X90535714Y-32635714D01*
X90607142Y-32707142D01*
X90749999Y-32778571D01*
X88535714Y-30778571D02*
X88035714Y-32278571D01*
X87535714Y-30778571D01*
X86249999Y-32278571D02*
X87107142Y-32278571D01*
X86678571Y-32278571D02*
X86678571Y-30778571D01*
X86821428Y-30992857D01*
X86964285Y-31135714D01*
X87107142Y-31207142D01*
X85607142Y-32135714D02*
X85535714Y-32207142D01*
X85607142Y-32278571D01*
X85678571Y-32207142D01*
X85607142Y-32135714D01*
X85607142Y-32278571D01*
X84607142Y-30778571D02*
X84464285Y-30778571D01*
X84321428Y-30850000D01*
X84249999Y-30921428D01*
X84178571Y-31064285D01*
X84107142Y-31350000D01*
X84107142Y-31707142D01*
X84178571Y-31992857D01*
X84249999Y-32135714D01*
X84321428Y-32207142D01*
X84464285Y-32278571D01*
X84607142Y-32278571D01*
X84749999Y-32207142D01*
X84821428Y-32135714D01*
X84892857Y-31992857D01*
X84964285Y-31707142D01*
X84964285Y-31350000D01*
X84892857Y-31064285D01*
X84821428Y-30921428D01*
X84749999Y-30850000D01*
X84607142Y-30778571D01*
D11*
G36*
X108119348Y-32686850D02*
G01*
X108077937Y-32750500D01*
X108041759Y-32806585D01*
X108012945Y-32851760D01*
X107993631Y-32882677D01*
X107985949Y-32895989D01*
X107985900Y-32896199D01*
X107995395Y-32905404D01*
X108021129Y-32926484D01*
X108058975Y-32956134D01*
X108097025Y-32985184D01*
X108297598Y-33151776D01*
X108479994Y-33334282D01*
X108643169Y-33531147D01*
X108786079Y-33740819D01*
X108907678Y-33961743D01*
X109006920Y-34192365D01*
X109082761Y-34431130D01*
X109090992Y-34463269D01*
X109124920Y-34616932D01*
X109148384Y-34766510D01*
X109162401Y-34920784D01*
X109167983Y-35088535D01*
X109168180Y-35131750D01*
X109156643Y-35397737D01*
X109122083Y-35653101D01*
X109064359Y-35898172D01*
X108983331Y-36133287D01*
X108878860Y-36358777D01*
X108750806Y-36574976D01*
X108599029Y-36782218D01*
X108423390Y-36980836D01*
X108371397Y-37033485D01*
X108309687Y-37092368D01*
X108240584Y-37154767D01*
X108172101Y-37213641D01*
X108112250Y-37261944D01*
X108106550Y-37266300D01*
X108057940Y-37303774D01*
X108017275Y-37336226D01*
X107988577Y-37360368D01*
X107975866Y-37372913D01*
X107975644Y-37373358D01*
X107980979Y-37386898D01*
X107997971Y-37417278D01*
X108023978Y-37460424D01*
X108056355Y-37512261D01*
X108092459Y-37568716D01*
X108129646Y-37625712D01*
X108165272Y-37679177D01*
X108196693Y-37725035D01*
X108221267Y-37759213D01*
X108236348Y-37777635D01*
X108239307Y-37779700D01*
X108253099Y-37772750D01*
X108282441Y-37754063D01*
X108322372Y-37726878D01*
X108349131Y-37707992D01*
X108565412Y-37537986D01*
X108766846Y-37348362D01*
X108951578Y-37141326D01*
X109117755Y-36919083D01*
X109263522Y-36683841D01*
X109350774Y-36516050D01*
X109463983Y-36252454D01*
X109552825Y-35983869D01*
X109617261Y-35711569D01*
X109657255Y-35436827D01*
X109672769Y-35160915D01*
X109663765Y-34885106D01*
X109630205Y-34610674D01*
X109572052Y-34338891D01*
X109489268Y-34071030D01*
X109427823Y-33912880D01*
X109305156Y-33651750D01*
X109162848Y-33406723D01*
X109000812Y-33177690D01*
X108818959Y-32964540D01*
X108617203Y-32767163D01*
X108395455Y-32585450D01*
X108325723Y-32534475D01*
X108252796Y-32482541D01*
X108119348Y-32686850D01*
G37*
X108119348Y-32686850D02*
X108077937Y-32750500D01*
X108041759Y-32806585D01*
X108012945Y-32851760D01*
X107993631Y-32882677D01*
X107985949Y-32895989D01*
X107985900Y-32896199D01*
X107995395Y-32905404D01*
X108021129Y-32926484D01*
X108058975Y-32956134D01*
X108097025Y-32985184D01*
X108297598Y-33151776D01*
X108479994Y-33334282D01*
X108643169Y-33531147D01*
X108786079Y-33740819D01*
X108907678Y-33961743D01*
X109006920Y-34192365D01*
X109082761Y-34431130D01*
X109090992Y-34463269D01*
X109124920Y-34616932D01*
X109148384Y-34766510D01*
X109162401Y-34920784D01*
X109167983Y-35088535D01*
X109168180Y-35131750D01*
X109156643Y-35397737D01*
X109122083Y-35653101D01*
X109064359Y-35898172D01*
X108983331Y-36133287D01*
X108878860Y-36358777D01*
X108750806Y-36574976D01*
X108599029Y-36782218D01*
X108423390Y-36980836D01*
X108371397Y-37033485D01*
X108309687Y-37092368D01*
X108240584Y-37154767D01*
X108172101Y-37213641D01*
X108112250Y-37261944D01*
X108106550Y-37266300D01*
X108057940Y-37303774D01*
X108017275Y-37336226D01*
X107988577Y-37360368D01*
X107975866Y-37372913D01*
X107975644Y-37373358D01*
X107980979Y-37386898D01*
X107997971Y-37417278D01*
X108023978Y-37460424D01*
X108056355Y-37512261D01*
X108092459Y-37568716D01*
X108129646Y-37625712D01*
X108165272Y-37679177D01*
X108196693Y-37725035D01*
X108221267Y-37759213D01*
X108236348Y-37777635D01*
X108239307Y-37779700D01*
X108253099Y-37772750D01*
X108282441Y-37754063D01*
X108322372Y-37726878D01*
X108349131Y-37707992D01*
X108565412Y-37537986D01*
X108766846Y-37348362D01*
X108951578Y-37141326D01*
X109117755Y-36919083D01*
X109263522Y-36683841D01*
X109350774Y-36516050D01*
X109463983Y-36252454D01*
X109552825Y-35983869D01*
X109617261Y-35711569D01*
X109657255Y-35436827D01*
X109672769Y-35160915D01*
X109663765Y-34885106D01*
X109630205Y-34610674D01*
X109572052Y-34338891D01*
X109489268Y-34071030D01*
X109427823Y-33912880D01*
X109305156Y-33651750D01*
X109162848Y-33406723D01*
X109000812Y-33177690D01*
X108818959Y-32964540D01*
X108617203Y-32767163D01*
X108395455Y-32585450D01*
X108325723Y-32534475D01*
X108252796Y-32482541D01*
X108119348Y-32686850D01*
G36*
X104731058Y-32503768D02*
G01*
X104700356Y-32523717D01*
X104657624Y-32553566D01*
X104606921Y-32590531D01*
X104589547Y-32603505D01*
X104376597Y-32779172D01*
X104180856Y-32972805D01*
X104003157Y-33182955D01*
X103844333Y-33408171D01*
X103705217Y-33647003D01*
X103586642Y-33898001D01*
X103489443Y-34159714D01*
X103414451Y-34430693D01*
X103362501Y-34709488D01*
X103357222Y-34748225D01*
X103348709Y-34834264D01*
X103342653Y-34938256D01*
X103339123Y-35052870D01*
X103338187Y-35170771D01*
X103339912Y-35284625D01*
X103344367Y-35387101D01*
X103350590Y-35461950D01*
X103391974Y-35727206D01*
X103456305Y-35989587D01*
X103542343Y-36246649D01*
X103648851Y-36495947D01*
X103774588Y-36735039D01*
X103918316Y-36961481D01*
X104078796Y-37172827D01*
X104254789Y-37366635D01*
X104372750Y-37478342D01*
X104419295Y-37518596D01*
X104473605Y-37563608D01*
X104532050Y-37610591D01*
X104590998Y-37656758D01*
X104646821Y-37699322D01*
X104695887Y-37735497D01*
X104734567Y-37762497D01*
X104759230Y-37777533D01*
X104765342Y-37779700D01*
X104774568Y-37769589D01*
X104795343Y-37741430D01*
X104825389Y-37698482D01*
X104862429Y-37644004D01*
X104904188Y-37581257D01*
X104907863Y-37575675D01*
X104949210Y-37512319D01*
X104984928Y-37456617D01*
X105012955Y-37411864D01*
X105031230Y-37381357D01*
X105037692Y-37368391D01*
X105037618Y-37368192D01*
X105026090Y-37359640D01*
X104998871Y-37339566D01*
X104960737Y-37311489D01*
X104937900Y-37294691D01*
X104732023Y-37128108D01*
X104545910Y-36946228D01*
X104380114Y-36750280D01*
X104235188Y-36541491D01*
X104111685Y-36321088D01*
X104010158Y-36090298D01*
X103931159Y-35850349D01*
X103875240Y-35602468D01*
X103842956Y-35347883D01*
X103834857Y-35087820D01*
X103846646Y-34871400D01*
X103882727Y-34618290D01*
X103942905Y-34371288D01*
X104026283Y-34131985D01*
X104131963Y-33901974D01*
X104259048Y-33682848D01*
X104406639Y-33476198D01*
X104573839Y-33283617D01*
X104759750Y-33106697D01*
X104909522Y-32986288D01*
X105024591Y-32900359D01*
X104953904Y-32790504D01*
X104891400Y-32694126D01*
X104841104Y-32618320D01*
X104802158Y-32561876D01*
X104773707Y-32523584D01*
X104754892Y-32502234D01*
X104745669Y-32496500D01*
X104731058Y-32503768D01*
G37*
X104731058Y-32503768D02*
X104700356Y-32523717D01*
X104657624Y-32553566D01*
X104606921Y-32590531D01*
X104589547Y-32603505D01*
X104376597Y-32779172D01*
X104180856Y-32972805D01*
X104003157Y-33182955D01*
X103844333Y-33408171D01*
X103705217Y-33647003D01*
X103586642Y-33898001D01*
X103489443Y-34159714D01*
X103414451Y-34430693D01*
X103362501Y-34709488D01*
X103357222Y-34748225D01*
X103348709Y-34834264D01*
X103342653Y-34938256D01*
X103339123Y-35052870D01*
X103338187Y-35170771D01*
X103339912Y-35284625D01*
X103344367Y-35387101D01*
X103350590Y-35461950D01*
X103391974Y-35727206D01*
X103456305Y-35989587D01*
X103542343Y-36246649D01*
X103648851Y-36495947D01*
X103774588Y-36735039D01*
X103918316Y-36961481D01*
X104078796Y-37172827D01*
X104254789Y-37366635D01*
X104372750Y-37478342D01*
X104419295Y-37518596D01*
X104473605Y-37563608D01*
X104532050Y-37610591D01*
X104590998Y-37656758D01*
X104646821Y-37699322D01*
X104695887Y-37735497D01*
X104734567Y-37762497D01*
X104759230Y-37777533D01*
X104765342Y-37779700D01*
X104774568Y-37769589D01*
X104795343Y-37741430D01*
X104825389Y-37698482D01*
X104862429Y-37644004D01*
X104904188Y-37581257D01*
X104907863Y-37575675D01*
X104949210Y-37512319D01*
X104984928Y-37456617D01*
X105012955Y-37411864D01*
X105031230Y-37381357D01*
X105037692Y-37368391D01*
X105037618Y-37368192D01*
X105026090Y-37359640D01*
X104998871Y-37339566D01*
X104960737Y-37311489D01*
X104937900Y-37294691D01*
X104732023Y-37128108D01*
X104545910Y-36946228D01*
X104380114Y-36750280D01*
X104235188Y-36541491D01*
X104111685Y-36321088D01*
X104010158Y-36090298D01*
X103931159Y-35850349D01*
X103875240Y-35602468D01*
X103842956Y-35347883D01*
X103834857Y-35087820D01*
X103846646Y-34871400D01*
X103882727Y-34618290D01*
X103942905Y-34371288D01*
X104026283Y-34131985D01*
X104131963Y-33901974D01*
X104259048Y-33682848D01*
X104406639Y-33476198D01*
X104573839Y-33283617D01*
X104759750Y-33106697D01*
X104909522Y-32986288D01*
X105024591Y-32900359D01*
X104953904Y-32790504D01*
X104891400Y-32694126D01*
X104841104Y-32618320D01*
X104802158Y-32561876D01*
X104773707Y-32523584D01*
X104754892Y-32502234D01*
X104745669Y-32496500D01*
X104731058Y-32503768D01*
G36*
X107693032Y-33344497D02*
G01*
X107673419Y-33370662D01*
X107646482Y-33408351D01*
X107615548Y-33452721D01*
X107583943Y-33498928D01*
X107554991Y-33542129D01*
X107532019Y-33577481D01*
X107518353Y-33600142D01*
X107516000Y-33605566D01*
X107525388Y-33614961D01*
X107550547Y-33635957D01*
X107586976Y-33664855D01*
X107608075Y-33681164D01*
X107757973Y-33810572D01*
X107894498Y-33957551D01*
X108015453Y-34118662D01*
X108118639Y-34290467D01*
X108201858Y-34469527D01*
X108262911Y-34652404D01*
X108282877Y-34736524D01*
X108315166Y-34952887D01*
X108322926Y-35167765D01*
X108306506Y-35379450D01*
X108266252Y-35586230D01*
X108202511Y-35786397D01*
X108115629Y-35978240D01*
X108005954Y-36160050D01*
X107989221Y-36184013D01*
X107938950Y-36248858D01*
X107875239Y-36322174D01*
X107803534Y-36398415D01*
X107729281Y-36472033D01*
X107657923Y-36537480D01*
X107594908Y-36589209D01*
X107582572Y-36598292D01*
X107544850Y-36626585D01*
X107516865Y-36649944D01*
X107503706Y-36664063D01*
X107503300Y-36665391D01*
X107509796Y-36678316D01*
X107527153Y-36706954D01*
X107552176Y-36746450D01*
X107581671Y-36791947D01*
X107612444Y-36838589D01*
X107641300Y-36881520D01*
X107665044Y-36915883D01*
X107680483Y-36936823D01*
X107684560Y-36940933D01*
X107695666Y-36934014D01*
X107721229Y-36916783D01*
X107744600Y-36900675D01*
X107905354Y-36775618D01*
X108058496Y-36629955D01*
X108199383Y-36468303D01*
X108260368Y-36387670D01*
X108310927Y-36311052D01*
X108365507Y-36217289D01*
X108420531Y-36113474D01*
X108472420Y-36006699D01*
X108517597Y-35904058D01*
X108552486Y-35812642D01*
X108556603Y-35800360D01*
X108616382Y-35578225D01*
X108651672Y-35353354D01*
X108662953Y-35127668D01*
X108650704Y-34903085D01*
X108615403Y-34681526D01*
X108557529Y-34464910D01*
X108477561Y-34255157D01*
X108375979Y-34054186D01*
X108253260Y-33863917D01*
X108109885Y-33686271D01*
X108001197Y-33574009D01*
X107949248Y-33525769D01*
X107893969Y-33477174D01*
X107839155Y-33431258D01*
X107788598Y-33391055D01*
X107746091Y-33359598D01*
X107715426Y-33339921D01*
X107701997Y-33334700D01*
X107693032Y-33344497D01*
G37*
X107693032Y-33344497D02*
X107673419Y-33370662D01*
X107646482Y-33408351D01*
X107615548Y-33452721D01*
X107583943Y-33498928D01*
X107554991Y-33542129D01*
X107532019Y-33577481D01*
X107518353Y-33600142D01*
X107516000Y-33605566D01*
X107525388Y-33614961D01*
X107550547Y-33635957D01*
X107586976Y-33664855D01*
X107608075Y-33681164D01*
X107757973Y-33810572D01*
X107894498Y-33957551D01*
X108015453Y-34118662D01*
X108118639Y-34290467D01*
X108201858Y-34469527D01*
X108262911Y-34652404D01*
X108282877Y-34736524D01*
X108315166Y-34952887D01*
X108322926Y-35167765D01*
X108306506Y-35379450D01*
X108266252Y-35586230D01*
X108202511Y-35786397D01*
X108115629Y-35978240D01*
X108005954Y-36160050D01*
X107989221Y-36184013D01*
X107938950Y-36248858D01*
X107875239Y-36322174D01*
X107803534Y-36398415D01*
X107729281Y-36472033D01*
X107657923Y-36537480D01*
X107594908Y-36589209D01*
X107582572Y-36598292D01*
X107544850Y-36626585D01*
X107516865Y-36649944D01*
X107503706Y-36664063D01*
X107503300Y-36665391D01*
X107509796Y-36678316D01*
X107527153Y-36706954D01*
X107552176Y-36746450D01*
X107581671Y-36791947D01*
X107612444Y-36838589D01*
X107641300Y-36881520D01*
X107665044Y-36915883D01*
X107680483Y-36936823D01*
X107684560Y-36940933D01*
X107695666Y-36934014D01*
X107721229Y-36916783D01*
X107744600Y-36900675D01*
X107905354Y-36775618D01*
X108058496Y-36629955D01*
X108199383Y-36468303D01*
X108260368Y-36387670D01*
X108310927Y-36311052D01*
X108365507Y-36217289D01*
X108420531Y-36113474D01*
X108472420Y-36006699D01*
X108517597Y-35904058D01*
X108552486Y-35812642D01*
X108556603Y-35800360D01*
X108616382Y-35578225D01*
X108651672Y-35353354D01*
X108662953Y-35127668D01*
X108650704Y-34903085D01*
X108615403Y-34681526D01*
X108557529Y-34464910D01*
X108477561Y-34255157D01*
X108375979Y-34054186D01*
X108253260Y-33863917D01*
X108109885Y-33686271D01*
X108001197Y-33574009D01*
X107949248Y-33525769D01*
X107893969Y-33477174D01*
X107839155Y-33431258D01*
X107788598Y-33391055D01*
X107746091Y-33359598D01*
X107715426Y-33339921D01*
X107701997Y-33334700D01*
X107693032Y-33344497D01*
G36*
X105290192Y-33341992D02*
G01*
X105261831Y-33361035D01*
X105223849Y-33388476D01*
X105208448Y-33400009D01*
X105032328Y-33546857D01*
X104877609Y-33705636D01*
X104742018Y-33879078D01*
X104623281Y-34069914D01*
X104575826Y-34160026D01*
X104480914Y-34376962D01*
X104410687Y-34598129D01*
X104365052Y-34822161D01*
X104343918Y-35047692D01*
X104347194Y-35273358D01*
X104374786Y-35497791D01*
X104426605Y-35719628D01*
X104502558Y-35937502D01*
X104602553Y-36150048D01*
X104722870Y-36350489D01*
X104785742Y-36436999D01*
X104860939Y-36528296D01*
X104944264Y-36620174D01*
X105031521Y-36708426D01*
X105118512Y-36788849D01*
X105201041Y-36857235D01*
X105274912Y-36909381D01*
X105289263Y-36918068D01*
X105325250Y-36939087D01*
X105418204Y-36799355D01*
X105452226Y-36747614D01*
X105480035Y-36704178D01*
X105499153Y-36673003D01*
X105507106Y-36658043D01*
X105507104Y-36657317D01*
X105470646Y-36632888D01*
X105421272Y-36594690D01*
X105363951Y-36546989D01*
X105303653Y-36494051D01*
X105245348Y-36440142D01*
X105194006Y-36389528D01*
X105188518Y-36383847D01*
X105047432Y-36219875D01*
X104929538Y-36045817D01*
X104834320Y-35860709D01*
X104761264Y-35663583D01*
X104720399Y-35505849D01*
X104704405Y-35407462D01*
X104694083Y-35292382D01*
X104689443Y-35168046D01*
X104690495Y-35041889D01*
X104697248Y-34921349D01*
X104709712Y-34813860D01*
X104719425Y-34761057D01*
X104777504Y-34549609D01*
X104856964Y-34351764D01*
X104958161Y-34166875D01*
X105081451Y-33994292D01*
X105227190Y-33833366D01*
X105230604Y-33830000D01*
X105281718Y-33781422D01*
X105334707Y-33733943D01*
X105382543Y-33693716D01*
X105411874Y-33671250D01*
X105447682Y-33644232D01*
X105473442Y-33621738D01*
X105483715Y-33608530D01*
X105483727Y-33608347D01*
X105477257Y-33593255D01*
X105459770Y-33562845D01*
X105434535Y-33522085D01*
X105404825Y-33475945D01*
X105373911Y-33429394D01*
X105345066Y-33387399D01*
X105321560Y-33354931D01*
X105306666Y-33336959D01*
X105303698Y-33334924D01*
X105290192Y-33341992D01*
G37*
X105290192Y-33341992D02*
X105261831Y-33361035D01*
X105223849Y-33388476D01*
X105208448Y-33400009D01*
X105032328Y-33546857D01*
X104877609Y-33705636D01*
X104742018Y-33879078D01*
X104623281Y-34069914D01*
X104575826Y-34160026D01*
X104480914Y-34376962D01*
X104410687Y-34598129D01*
X104365052Y-34822161D01*
X104343918Y-35047692D01*
X104347194Y-35273358D01*
X104374786Y-35497791D01*
X104426605Y-35719628D01*
X104502558Y-35937502D01*
X104602553Y-36150048D01*
X104722870Y-36350489D01*
X104785742Y-36436999D01*
X104860939Y-36528296D01*
X104944264Y-36620174D01*
X105031521Y-36708426D01*
X105118512Y-36788849D01*
X105201041Y-36857235D01*
X105274912Y-36909381D01*
X105289263Y-36918068D01*
X105325250Y-36939087D01*
X105418204Y-36799355D01*
X105452226Y-36747614D01*
X105480035Y-36704178D01*
X105499153Y-36673003D01*
X105507106Y-36658043D01*
X105507104Y-36657317D01*
X105470646Y-36632888D01*
X105421272Y-36594690D01*
X105363951Y-36546989D01*
X105303653Y-36494051D01*
X105245348Y-36440142D01*
X105194006Y-36389528D01*
X105188518Y-36383847D01*
X105047432Y-36219875D01*
X104929538Y-36045817D01*
X104834320Y-35860709D01*
X104761264Y-35663583D01*
X104720399Y-35505849D01*
X104704405Y-35407462D01*
X104694083Y-35292382D01*
X104689443Y-35168046D01*
X104690495Y-35041889D01*
X104697248Y-34921349D01*
X104709712Y-34813860D01*
X104719425Y-34761057D01*
X104777504Y-34549609D01*
X104856964Y-34351764D01*
X104958161Y-34166875D01*
X105081451Y-33994292D01*
X105227190Y-33833366D01*
X105230604Y-33830000D01*
X105281718Y-33781422D01*
X105334707Y-33733943D01*
X105382543Y-33693716D01*
X105411874Y-33671250D01*
X105447682Y-33644232D01*
X105473442Y-33621738D01*
X105483715Y-33608530D01*
X105483727Y-33608347D01*
X105477257Y-33593255D01*
X105459770Y-33562845D01*
X105434535Y-33522085D01*
X105404825Y-33475945D01*
X105373911Y-33429394D01*
X105345066Y-33387399D01*
X105321560Y-33354931D01*
X105306666Y-33336959D01*
X105303698Y-33334924D01*
X105290192Y-33341992D01*
G36*
X106074590Y-34006257D02*
G01*
X106023064Y-34009435D01*
X105971392Y-34014671D01*
X105926543Y-34021168D01*
X105895487Y-34028129D01*
X105885908Y-34032612D01*
X105863527Y-34043124D01*
X105842195Y-34045900D01*
X105809757Y-34051785D01*
X105773134Y-34066022D01*
X105771710Y-34066754D01*
X105738976Y-34083578D01*
X105713785Y-34096167D01*
X105712600Y-34096738D01*
X105701002Y-34110652D01*
X105695539Y-34141146D01*
X105694923Y-34180659D01*
X105696947Y-34226917D01*
X105700702Y-34266674D01*
X105703825Y-34284574D01*
X105720818Y-34341775D01*
X105739431Y-34390754D01*
X105756702Y-34423906D01*
X105759679Y-34427900D01*
X105773565Y-34454351D01*
X105776100Y-34468253D01*
X105785394Y-34489881D01*
X105807751Y-34513452D01*
X105807850Y-34513531D01*
X105830075Y-34535129D01*
X105839595Y-34552549D01*
X105839600Y-34552825D01*
X105849925Y-34568097D01*
X105871172Y-34581529D01*
X105902811Y-34603651D01*
X105922265Y-34625707D01*
X105942801Y-34647691D01*
X105960543Y-34655500D01*
X105977582Y-34660395D01*
X105972067Y-34675285D01*
X105943810Y-34700476D01*
X105923772Y-34715150D01*
X105871151Y-34766254D01*
X105829124Y-34835145D01*
X105801142Y-34915240D01*
X105792571Y-34965536D01*
X105786202Y-35009249D01*
X105774894Y-35037896D01*
X105753412Y-35061808D01*
X105736858Y-35075504D01*
X105702928Y-35109902D01*
X105670219Y-35154984D01*
X105656257Y-35179909D01*
X105623106Y-35270447D01*
X105614763Y-35357014D01*
X105631371Y-35441699D01*
X105673071Y-35526590D01*
X105680610Y-35538150D01*
X105703576Y-35579590D01*
X105729061Y-35637084D01*
X105753421Y-35702040D01*
X105764152Y-35735000D01*
X105784953Y-35796422D01*
X105808105Y-35854814D01*
X105830232Y-35902072D01*
X105842510Y-35923047D01*
X105869986Y-35956903D01*
X105905257Y-35992040D01*
X105942130Y-36023186D01*
X105974411Y-36045073D01*
X105994651Y-36052500D01*
X106010678Y-36059845D01*
X106038093Y-36078459D01*
X106053070Y-36089986D01*
X106092100Y-36117121D01*
X106140888Y-36145702D01*
X106169800Y-36160415D01*
X106221946Y-36187770D01*
X106276513Y-36220535D01*
X106301158Y-36237088D01*
X106363966Y-36273688D01*
X106433533Y-36301326D01*
X106500030Y-36316524D01*
X106530881Y-36318342D01*
X106567443Y-36314413D01*
X106612945Y-36305562D01*
X106629500Y-36301427D01*
X106678071Y-36283379D01*
X106727787Y-36257546D01*
X106742012Y-36248309D01*
X106779713Y-36223552D01*
X106829561Y-36193013D01*
X106881330Y-36162942D01*
X106885773Y-36160450D01*
X106986796Y-36102545D01*
X107009836Y-36088125D01*
X106772780Y-36088125D01*
X106770886Y-36117099D01*
X106747019Y-36150807D01*
X106703484Y-36186519D01*
X106674427Y-36204637D01*
X106594469Y-36236595D01*
X106510921Y-36244031D01*
X106427097Y-36226868D01*
X106390658Y-36211341D01*
X106336243Y-36179573D01*
X106294789Y-36146134D01*
X106269486Y-36114376D01*
X106263524Y-36087653D01*
X106266282Y-36080613D01*
X106294902Y-36053398D01*
X106342225Y-36029704D01*
X106401565Y-36012292D01*
X106449222Y-36005079D01*
X106512150Y-36003952D01*
X106578705Y-36010366D01*
X106643336Y-36022897D01*
X106700487Y-36040120D01*
X106744608Y-36060609D01*
X106770143Y-36082940D01*
X106772780Y-36088125D01*
X107009836Y-36088125D01*
X107067689Y-36051918D01*
X107131425Y-36005293D01*
X107180977Y-35959394D01*
X107219319Y-35910942D01*
X107249425Y-35856662D01*
X107274266Y-35793276D01*
X107296816Y-35717508D01*
X107300612Y-35703250D01*
X107300712Y-35702916D01*
X107210942Y-35702916D01*
X107203723Y-35760671D01*
X107184914Y-35820035D01*
X107154708Y-35876912D01*
X107113294Y-35927207D01*
X107103075Y-35936650D01*
X107043469Y-35979654D01*
X106983596Y-36006175D01*
X106927827Y-36015288D01*
X106880538Y-36006068D01*
X106855600Y-35989000D01*
X106837613Y-35955417D01*
X106830370Y-35906508D01*
X106833893Y-35849973D01*
X106848202Y-35793508D01*
X106855026Y-35776794D01*
X106891312Y-35716730D01*
X106931280Y-35672334D01*
X106779122Y-35672334D01*
X106766754Y-35739430D01*
X106733345Y-35802954D01*
X106683152Y-35857075D01*
X106620435Y-35895957D01*
X106613921Y-35898670D01*
X106565213Y-35909444D01*
X106504360Y-35911090D01*
X106442721Y-35904105D01*
X106406628Y-35893420D01*
X106226506Y-35893420D01*
X106220863Y-35945236D01*
X106200009Y-35983607D01*
X106178922Y-35999079D01*
X106127281Y-36012122D01*
X106067537Y-36009094D01*
X106024745Y-35996584D01*
X105970205Y-35964433D01*
X105916029Y-35916935D01*
X105871140Y-35862654D01*
X105853043Y-35831782D01*
X105834392Y-35775919D01*
X105826666Y-35713153D01*
X105829138Y-35649786D01*
X105841082Y-35592119D01*
X105861770Y-35546453D01*
X105889035Y-35519830D01*
X105924822Y-35514264D01*
X105970154Y-35527622D01*
X106021110Y-35557290D01*
X106073769Y-35600655D01*
X106124208Y-35655107D01*
X106155290Y-35697208D01*
X106193407Y-35765415D01*
X106217249Y-35832149D01*
X106226506Y-35893420D01*
X106406628Y-35893420D01*
X106391657Y-35888988D01*
X106391525Y-35888928D01*
X106331099Y-35848638D01*
X106284020Y-35791776D01*
X106254498Y-35724835D01*
X106246350Y-35665150D01*
X106258272Y-35609783D01*
X106289834Y-35553942D01*
X106336041Y-35503335D01*
X106391896Y-35463669D01*
X106440254Y-35443626D01*
X106514983Y-35433885D01*
X106587683Y-35444451D01*
X106654227Y-35472538D01*
X106710492Y-35515363D01*
X106752353Y-35570143D01*
X106775683Y-35634093D01*
X106779122Y-35672334D01*
X106931280Y-35672334D01*
X106940950Y-35661593D01*
X106998255Y-35615821D01*
X107057544Y-35583850D01*
X107113133Y-35570115D01*
X107120123Y-35569900D01*
X107161163Y-35580261D01*
X107189852Y-35608615D01*
X107206382Y-35650865D01*
X107210942Y-35702916D01*
X107300712Y-35702916D01*
X107318407Y-35644283D01*
X107339461Y-35587358D01*
X107360040Y-35542269D01*
X107366000Y-35531800D01*
X107402271Y-35451570D01*
X107418282Y-35364897D01*
X107417563Y-35352386D01*
X107355043Y-35352386D01*
X107341562Y-35433399D01*
X107305570Y-35509693D01*
X107305112Y-35510392D01*
X107280232Y-35542332D01*
X107259342Y-35551315D01*
X107237507Y-35537199D01*
X107215113Y-35507812D01*
X107194151Y-35465957D01*
X107177819Y-35412109D01*
X107166292Y-35351056D01*
X107159747Y-35287583D01*
X107158654Y-35239471D01*
X107069131Y-35239471D01*
X107063812Y-35311494D01*
X107043847Y-35365956D01*
X106999493Y-35427059D01*
X106943107Y-35466753D01*
X106877449Y-35484278D01*
X106805279Y-35478872D01*
X106732918Y-35451658D01*
X106682522Y-35413923D01*
X106636664Y-35358787D01*
X106601552Y-35294193D01*
X106593888Y-35273697D01*
X106577918Y-35195167D01*
X106579037Y-35173959D01*
X106462961Y-35173959D01*
X106452862Y-35244810D01*
X106425085Y-35314526D01*
X106378776Y-35379241D01*
X106375950Y-35382286D01*
X106313583Y-35432576D01*
X106241670Y-35459902D01*
X106160366Y-35465225D01*
X106113150Y-35460871D01*
X106081307Y-35451861D01*
X106054822Y-35434428D01*
X106038322Y-35419313D01*
X105992991Y-35358982D01*
X105970826Y-35288836D01*
X105971963Y-35210573D01*
X105912769Y-35210573D01*
X105911764Y-35273753D01*
X105904039Y-35341064D01*
X105889915Y-35407512D01*
X105869716Y-35468103D01*
X105845174Y-35515717D01*
X105822753Y-35539321D01*
X105799511Y-35540126D01*
X105773083Y-35517512D01*
X105754371Y-35491928D01*
X105725310Y-35427507D01*
X105712636Y-35352404D01*
X105716877Y-35275780D01*
X105737957Y-35208040D01*
X105762968Y-35168635D01*
X105795524Y-35133339D01*
X105829733Y-35107079D01*
X105859704Y-35094780D01*
X105872245Y-35095750D01*
X105893332Y-35116578D01*
X105906732Y-35156516D01*
X105912769Y-35210573D01*
X105971963Y-35210573D01*
X105971975Y-35209798D01*
X105992470Y-35133411D01*
X106030998Y-35060827D01*
X106084848Y-35002238D01*
X106149619Y-34960654D01*
X106220912Y-34939085D01*
X106278096Y-34938077D01*
X106343610Y-34956578D01*
X106395706Y-34993284D01*
X106433531Y-35044328D01*
X106456233Y-35105843D01*
X106462961Y-35173959D01*
X106579037Y-35173959D01*
X106581792Y-35121759D01*
X106603535Y-35056948D01*
X106641174Y-35004207D01*
X106692734Y-34967011D01*
X106756242Y-34948833D01*
X106779178Y-34947600D01*
X106852894Y-34959113D01*
X106919901Y-34990927D01*
X106977613Y-35038957D01*
X107023446Y-35099116D01*
X107054814Y-35167316D01*
X107069131Y-35239471D01*
X107158654Y-35239471D01*
X107158358Y-35226476D01*
X107162302Y-35172520D01*
X107171753Y-35130502D01*
X107186887Y-35105208D01*
X107200162Y-35100000D01*
X107225998Y-35109500D01*
X107258940Y-35133944D01*
X107291852Y-35167243D01*
X107313892Y-35197015D01*
X107345868Y-35271857D01*
X107355043Y-35352386D01*
X107417563Y-35352386D01*
X107413828Y-35287498D01*
X107394590Y-35217157D01*
X107362854Y-35156020D01*
X107313608Y-35094728D01*
X107306647Y-35087300D01*
X107274348Y-35049980D01*
X107256303Y-35017527D01*
X107250136Y-34991682D01*
X107182627Y-34991682D01*
X107174415Y-35018250D01*
X107161620Y-35023800D01*
X107146777Y-35017351D01*
X107116920Y-35000351D01*
X107078185Y-34976313D01*
X107073550Y-34973329D01*
X107031964Y-34943610D01*
X106985279Y-34905733D01*
X106937312Y-34863391D01*
X106891880Y-34820275D01*
X106888099Y-34816386D01*
X106757937Y-34816386D01*
X106736114Y-34851501D01*
X106713289Y-34873704D01*
X106657389Y-34907627D01*
X106585836Y-34928130D01*
X106505139Y-34934207D01*
X106421805Y-34924849D01*
X106406206Y-34921241D01*
X106343149Y-34897567D01*
X106301080Y-34865050D01*
X106281001Y-34826142D01*
X106283914Y-34783295D01*
X106310821Y-34738962D01*
X106325105Y-34724498D01*
X106258700Y-34724498D01*
X106249562Y-34743243D01*
X106224765Y-34774238D01*
X106188236Y-34813561D01*
X106143905Y-34857293D01*
X106095699Y-34901511D01*
X106047545Y-34942294D01*
X106016455Y-34966343D01*
X105962589Y-35002597D01*
X105924260Y-35019926D01*
X105900066Y-35018334D01*
X105888608Y-34997824D01*
X105887749Y-34966650D01*
X105904608Y-34882005D01*
X105941832Y-34812525D01*
X105999546Y-34758022D01*
X106049150Y-34730060D01*
X106087513Y-34717410D01*
X106133197Y-34709288D01*
X106179676Y-34705867D01*
X106220425Y-34707321D01*
X106248919Y-34713823D01*
X106258700Y-34724498D01*
X106325105Y-34724498D01*
X106325594Y-34724003D01*
X106391487Y-34679392D01*
X106465842Y-34655196D01*
X106543418Y-34651141D01*
X106618978Y-34666955D01*
X106687283Y-34702364D01*
X106733750Y-34745289D01*
X106756908Y-34782498D01*
X106757937Y-34816386D01*
X106888099Y-34816386D01*
X106852798Y-34780078D01*
X106823882Y-34746492D01*
X106808949Y-34723209D01*
X106807983Y-34716382D01*
X106822876Y-34706241D01*
X106859831Y-34701413D01*
X106894952Y-34700954D01*
X106983420Y-34712877D01*
X107057656Y-34745480D01*
X107116229Y-34797540D01*
X107157711Y-34867833D01*
X107178966Y-34943958D01*
X107182627Y-34991682D01*
X107250136Y-34991682D01*
X107247057Y-34978783D01*
X107244793Y-34960791D01*
X107227189Y-34882242D01*
X107194264Y-34808028D01*
X107150042Y-34745757D01*
X107113552Y-34712650D01*
X107076271Y-34683568D01*
X107061009Y-34665153D01*
X107067181Y-34656476D01*
X107077558Y-34655500D01*
X107097528Y-34645748D01*
X107116794Y-34624245D01*
X107140258Y-34598436D01*
X107162264Y-34585058D01*
X107187312Y-34567616D01*
X107199716Y-34549638D01*
X107213680Y-34524313D01*
X107236708Y-34487665D01*
X107256138Y-34458795D01*
X107279895Y-34420093D01*
X107295858Y-34385536D01*
X107300100Y-34367469D01*
X107304672Y-34342206D01*
X107311397Y-34332517D01*
X107322808Y-34313223D01*
X107331080Y-34276367D01*
X107335877Y-34229632D01*
X107335935Y-34226720D01*
X107282875Y-34226720D01*
X107278457Y-34236719D01*
X107258825Y-34255242D01*
X107232767Y-34281072D01*
X107224720Y-34295939D01*
X107235505Y-34297768D01*
X107242950Y-34295307D01*
X107258771Y-34292236D01*
X107258812Y-34302757D01*
X107242670Y-34329324D01*
X107235736Y-34339214D01*
X107220315Y-34365297D01*
X107222794Y-34375988D01*
X107226211Y-34376501D01*
X107228566Y-34383809D01*
X107214321Y-34401630D01*
X107205973Y-34409408D01*
X107183237Y-34432727D01*
X107180205Y-34447019D01*
X107185624Y-34452190D01*
X107189373Y-34462686D01*
X107171397Y-34478006D01*
X107152752Y-34488572D01*
X107126680Y-34504044D01*
X107116658Y-34513701D01*
X107119125Y-34515238D01*
X107134815Y-34520847D01*
X107130343Y-34533089D01*
X107108593Y-34547920D01*
X107090217Y-34555749D01*
X107060350Y-34571075D01*
X107051256Y-34586667D01*
X107051718Y-34588321D01*
X107047472Y-34600006D01*
X107021283Y-34604560D01*
X107012593Y-34604700D01*
X106982521Y-34607117D01*
X106972921Y-34615902D01*
X106974493Y-34623750D01*
X106969465Y-34636947D01*
X106944180Y-34642771D01*
X106902728Y-34641090D01*
X106849198Y-34631773D01*
X106834375Y-34628227D01*
X106793873Y-34611999D01*
X106752840Y-34586053D01*
X106717809Y-34555748D01*
X106695311Y-34526441D01*
X106690500Y-34510203D01*
X106700771Y-34489596D01*
X106729150Y-34458927D01*
X106771987Y-34421239D01*
X106825632Y-34379575D01*
X106886434Y-34336978D01*
X106936793Y-34304872D01*
X106980211Y-34277557D01*
X107010396Y-34256799D01*
X107024360Y-34244792D01*
X107020700Y-34243253D01*
X106985631Y-34256494D01*
X106935728Y-34279731D01*
X106877642Y-34309412D01*
X106818023Y-34341981D01*
X106763521Y-34373886D01*
X106720787Y-34401572D01*
X106710845Y-34408837D01*
X106669756Y-34435943D01*
X106639600Y-34443427D01*
X106615093Y-34431215D01*
X106596012Y-34407230D01*
X106578733Y-34358685D01*
X106579148Y-34349728D01*
X106465533Y-34349728D01*
X106457928Y-34389765D01*
X106434275Y-34422906D01*
X106430151Y-34426899D01*
X106399754Y-34455456D01*
X106338752Y-34410938D01*
X106305009Y-34388588D01*
X106260164Y-34361987D01*
X106209143Y-34333674D01*
X106156872Y-34306191D01*
X106108278Y-34282078D01*
X106068284Y-34263876D01*
X106041819Y-34254125D01*
X106033946Y-34253721D01*
X106039859Y-34262743D01*
X106062275Y-34277416D01*
X106070195Y-34281635D01*
X106113318Y-34306355D01*
X106166013Y-34340404D01*
X106221371Y-34378891D01*
X106272482Y-34416924D01*
X106312437Y-34449613D01*
X106327153Y-34463541D01*
X106348742Y-34491598D01*
X106352427Y-34516659D01*
X106337073Y-34544504D01*
X106304682Y-34577995D01*
X106275297Y-34598153D01*
X106235783Y-34615775D01*
X106191543Y-34629779D01*
X106147975Y-34639084D01*
X106110480Y-34642607D01*
X106084458Y-34639267D01*
X106075310Y-34627982D01*
X106076308Y-34623750D01*
X106075205Y-34609971D01*
X106054564Y-34604904D01*
X106045198Y-34604700D01*
X106007187Y-34601905D01*
X105981712Y-34594792D01*
X105973764Y-34585268D01*
X105979093Y-34579428D01*
X105979980Y-34569129D01*
X105958213Y-34555727D01*
X105954758Y-34554255D01*
X105928147Y-34539120D01*
X105915892Y-34524039D01*
X105915800Y-34522961D01*
X105905406Y-34508379D01*
X105879388Y-34490166D01*
X105868175Y-34484176D01*
X105840414Y-34468729D01*
X105834304Y-34459686D01*
X105844028Y-34455251D01*
X105857108Y-34449930D01*
X105855142Y-34439275D01*
X105836544Y-34417661D01*
X105832127Y-34413027D01*
X105812523Y-34388856D01*
X105810801Y-34376883D01*
X105814200Y-34376100D01*
X105818734Y-34368663D01*
X105804471Y-34348018D01*
X105797527Y-34340480D01*
X105771405Y-34310191D01*
X105764609Y-34294319D01*
X105777362Y-34293530D01*
X105782450Y-34295307D01*
X105799128Y-34297211D01*
X105796759Y-34282713D01*
X105775315Y-34251644D01*
X105774889Y-34251103D01*
X105758503Y-34227884D01*
X105758318Y-34217060D01*
X105768539Y-34213243D01*
X105786165Y-34204697D01*
X105784255Y-34187262D01*
X105770154Y-34165802D01*
X105753852Y-34139263D01*
X105757548Y-34125833D01*
X105783095Y-34122919D01*
X105799956Y-34124129D01*
X105831718Y-34125251D01*
X105843376Y-34119355D01*
X105842272Y-34110744D01*
X105842478Y-34100307D01*
X105857390Y-34097168D01*
X105891887Y-34100419D01*
X105895272Y-34100878D01*
X105932261Y-34104239D01*
X105947205Y-34100737D01*
X105946369Y-34094788D01*
X105948026Y-34086542D01*
X105970285Y-34086961D01*
X105986222Y-34089619D01*
X106016420Y-34094341D01*
X106026188Y-34091826D01*
X106019831Y-34080602D01*
X106018253Y-34078677D01*
X106008174Y-34063596D01*
X106014172Y-34059911D01*
X106038820Y-34067565D01*
X106063809Y-34077650D01*
X106097391Y-34091319D01*
X106112618Y-34094992D01*
X106114600Y-34088395D01*
X106109950Y-34075191D01*
X106108249Y-34063958D01*
X106119237Y-34065840D01*
X106146857Y-34081595D01*
X106148448Y-34082577D01*
X106179729Y-34099528D01*
X106194838Y-34100218D01*
X106197220Y-34084522D01*
X106196704Y-34080825D01*
X106201660Y-34071286D01*
X106218381Y-34077805D01*
X106239922Y-34097000D01*
X106259182Y-34113374D01*
X106271850Y-34109356D01*
X106273941Y-34106525D01*
X106285747Y-34100542D01*
X106303796Y-34114179D01*
X106313523Y-34125362D01*
X106336528Y-34147874D01*
X106352686Y-34149311D01*
X106356276Y-34146444D01*
X106370758Y-34147083D01*
X106391420Y-34165661D01*
X106414515Y-34196737D01*
X106436297Y-34234870D01*
X106453021Y-34274617D01*
X106458722Y-34295270D01*
X106465533Y-34349728D01*
X106579148Y-34349728D01*
X106581453Y-34300059D01*
X106601037Y-34242750D01*
X106621970Y-34203622D01*
X106643492Y-34170680D01*
X106662150Y-34148261D01*
X106674488Y-34140704D01*
X106677518Y-34146701D01*
X106684788Y-34152598D01*
X106706176Y-34137555D01*
X106713420Y-34130826D01*
X106739881Y-34108184D01*
X106758362Y-34097196D01*
X106764644Y-34099787D01*
X106760350Y-34109400D01*
X106757138Y-34121355D01*
X106768721Y-34118899D01*
X106790309Y-34103797D01*
X106800807Y-34094486D01*
X106821000Y-34077457D01*
X106829076Y-34078108D01*
X106830200Y-34088136D01*
X106834397Y-34105805D01*
X106849129Y-34105389D01*
X106877615Y-34086626D01*
X106881000Y-34084000D01*
X106911615Y-34063173D01*
X106925709Y-34061471D01*
X106923730Y-34077554D01*
X106921734Y-34088645D01*
X106931900Y-34088969D01*
X106959491Y-34078525D01*
X106961821Y-34077554D01*
X106998882Y-34063129D01*
X107015738Y-34060024D01*
X107014952Y-34068302D01*
X107007148Y-34078677D01*
X106999206Y-34091002D01*
X107006890Y-34094448D01*
X107034507Y-34090487D01*
X107039179Y-34089619D01*
X107071026Y-34085755D01*
X107080742Y-34090630D01*
X107079277Y-34094392D01*
X107082594Y-34102138D01*
X107107530Y-34103261D01*
X107134884Y-34100696D01*
X107172347Y-34097212D01*
X107189974Y-34099211D01*
X107192967Y-34107921D01*
X107191085Y-34113946D01*
X107190288Y-34127802D01*
X107205714Y-34133798D01*
X107230251Y-34134800D01*
X107260609Y-34136582D01*
X107271040Y-34144014D01*
X107268268Y-34157025D01*
X107254366Y-34195219D01*
X107252726Y-34215823D01*
X107263474Y-34223561D01*
X107270044Y-34224101D01*
X107282875Y-34226720D01*
X107335935Y-34226720D01*
X107336859Y-34180702D01*
X107333690Y-34137259D01*
X107326030Y-34106987D01*
X107321617Y-34100271D01*
X107297041Y-34085804D01*
X107277646Y-34080413D01*
X107247922Y-34070493D01*
X107233888Y-34060967D01*
X107211091Y-34050164D01*
X107179450Y-34045900D01*
X107147213Y-34041800D01*
X107126518Y-34032337D01*
X107107965Y-34024942D01*
X107071556Y-34017640D01*
X107024821Y-34011411D01*
X106975290Y-34007233D01*
X106930491Y-34006083D01*
X106925450Y-34006206D01*
X106894276Y-34007041D01*
X106859274Y-34007812D01*
X106828758Y-34011850D01*
X106811163Y-34020512D01*
X106810900Y-34020905D01*
X106793836Y-34029948D01*
X106767919Y-34033200D01*
X106732865Y-34042173D01*
X106709550Y-34058600D01*
X106684877Y-34077815D01*
X106665623Y-34084000D01*
X106641368Y-34094220D01*
X106610282Y-34121122D01*
X106577659Y-34159064D01*
X106548789Y-34202406D01*
X106541077Y-34216756D01*
X106515850Y-34266962D01*
X106489482Y-34215277D01*
X106459068Y-34163548D01*
X106426601Y-34121279D01*
X106396258Y-34093209D01*
X106373840Y-34084000D01*
X106348896Y-34075119D01*
X106328550Y-34058600D01*
X106298552Y-34039265D01*
X106270182Y-34033200D01*
X106241560Y-34029029D01*
X106226865Y-34020361D01*
X106209454Y-34010695D01*
X106184841Y-34007295D01*
X106145034Y-34006664D01*
X106119000Y-34005936D01*
X106074590Y-34006257D01*
G37*
X106074590Y-34006257D02*
X106023064Y-34009435D01*
X105971392Y-34014671D01*
X105926543Y-34021168D01*
X105895487Y-34028129D01*
X105885908Y-34032612D01*
X105863527Y-34043124D01*
X105842195Y-34045900D01*
X105809757Y-34051785D01*
X105773134Y-34066022D01*
X105771710Y-34066754D01*
X105738976Y-34083578D01*
X105713785Y-34096167D01*
X105712600Y-34096738D01*
X105701002Y-34110652D01*
X105695539Y-34141146D01*
X105694923Y-34180659D01*
X105696947Y-34226917D01*
X105700702Y-34266674D01*
X105703825Y-34284574D01*
X105720818Y-34341775D01*
X105739431Y-34390754D01*
X105756702Y-34423906D01*
X105759679Y-34427900D01*
X105773565Y-34454351D01*
X105776100Y-34468253D01*
X105785394Y-34489881D01*
X105807751Y-34513452D01*
X105807850Y-34513531D01*
X105830075Y-34535129D01*
X105839595Y-34552549D01*
X105839600Y-34552825D01*
X105849925Y-34568097D01*
X105871172Y-34581529D01*
X105902811Y-34603651D01*
X105922265Y-34625707D01*
X105942801Y-34647691D01*
X105960543Y-34655500D01*
X105977582Y-34660395D01*
X105972067Y-34675285D01*
X105943810Y-34700476D01*
X105923772Y-34715150D01*
X105871151Y-34766254D01*
X105829124Y-34835145D01*
X105801142Y-34915240D01*
X105792571Y-34965536D01*
X105786202Y-35009249D01*
X105774894Y-35037896D01*
X105753412Y-35061808D01*
X105736858Y-35075504D01*
X105702928Y-35109902D01*
X105670219Y-35154984D01*
X105656257Y-35179909D01*
X105623106Y-35270447D01*
X105614763Y-35357014D01*
X105631371Y-35441699D01*
X105673071Y-35526590D01*
X105680610Y-35538150D01*
X105703576Y-35579590D01*
X105729061Y-35637084D01*
X105753421Y-35702040D01*
X105764152Y-35735000D01*
X105784953Y-35796422D01*
X105808105Y-35854814D01*
X105830232Y-35902072D01*
X105842510Y-35923047D01*
X105869986Y-35956903D01*
X105905257Y-35992040D01*
X105942130Y-36023186D01*
X105974411Y-36045073D01*
X105994651Y-36052500D01*
X106010678Y-36059845D01*
X106038093Y-36078459D01*
X106053070Y-36089986D01*
X106092100Y-36117121D01*
X106140888Y-36145702D01*
X106169800Y-36160415D01*
X106221946Y-36187770D01*
X106276513Y-36220535D01*
X106301158Y-36237088D01*
X106363966Y-36273688D01*
X106433533Y-36301326D01*
X106500030Y-36316524D01*
X106530881Y-36318342D01*
X106567443Y-36314413D01*
X106612945Y-36305562D01*
X106629500Y-36301427D01*
X106678071Y-36283379D01*
X106727787Y-36257546D01*
X106742012Y-36248309D01*
X106779713Y-36223552D01*
X106829561Y-36193013D01*
X106881330Y-36162942D01*
X106885773Y-36160450D01*
X106986796Y-36102545D01*
X107009836Y-36088125D01*
X106772780Y-36088125D01*
X106770886Y-36117099D01*
X106747019Y-36150807D01*
X106703484Y-36186519D01*
X106674427Y-36204637D01*
X106594469Y-36236595D01*
X106510921Y-36244031D01*
X106427097Y-36226868D01*
X106390658Y-36211341D01*
X106336243Y-36179573D01*
X106294789Y-36146134D01*
X106269486Y-36114376D01*
X106263524Y-36087653D01*
X106266282Y-36080613D01*
X106294902Y-36053398D01*
X106342225Y-36029704D01*
X106401565Y-36012292D01*
X106449222Y-36005079D01*
X106512150Y-36003952D01*
X106578705Y-36010366D01*
X106643336Y-36022897D01*
X106700487Y-36040120D01*
X106744608Y-36060609D01*
X106770143Y-36082940D01*
X106772780Y-36088125D01*
X107009836Y-36088125D01*
X107067689Y-36051918D01*
X107131425Y-36005293D01*
X107180977Y-35959394D01*
X107219319Y-35910942D01*
X107249425Y-35856662D01*
X107274266Y-35793276D01*
X107296816Y-35717508D01*
X107300612Y-35703250D01*
X107300712Y-35702916D01*
X107210942Y-35702916D01*
X107203723Y-35760671D01*
X107184914Y-35820035D01*
X107154708Y-35876912D01*
X107113294Y-35927207D01*
X107103075Y-35936650D01*
X107043469Y-35979654D01*
X106983596Y-36006175D01*
X106927827Y-36015288D01*
X106880538Y-36006068D01*
X106855600Y-35989000D01*
X106837613Y-35955417D01*
X106830370Y-35906508D01*
X106833893Y-35849973D01*
X106848202Y-35793508D01*
X106855026Y-35776794D01*
X106891312Y-35716730D01*
X106931280Y-35672334D01*
X106779122Y-35672334D01*
X106766754Y-35739430D01*
X106733345Y-35802954D01*
X106683152Y-35857075D01*
X106620435Y-35895957D01*
X106613921Y-35898670D01*
X106565213Y-35909444D01*
X106504360Y-35911090D01*
X106442721Y-35904105D01*
X106406628Y-35893420D01*
X106226506Y-35893420D01*
X106220863Y-35945236D01*
X106200009Y-35983607D01*
X106178922Y-35999079D01*
X106127281Y-36012122D01*
X106067537Y-36009094D01*
X106024745Y-35996584D01*
X105970205Y-35964433D01*
X105916029Y-35916935D01*
X105871140Y-35862654D01*
X105853043Y-35831782D01*
X105834392Y-35775919D01*
X105826666Y-35713153D01*
X105829138Y-35649786D01*
X105841082Y-35592119D01*
X105861770Y-35546453D01*
X105889035Y-35519830D01*
X105924822Y-35514264D01*
X105970154Y-35527622D01*
X106021110Y-35557290D01*
X106073769Y-35600655D01*
X106124208Y-35655107D01*
X106155290Y-35697208D01*
X106193407Y-35765415D01*
X106217249Y-35832149D01*
X106226506Y-35893420D01*
X106406628Y-35893420D01*
X106391657Y-35888988D01*
X106391525Y-35888928D01*
X106331099Y-35848638D01*
X106284020Y-35791776D01*
X106254498Y-35724835D01*
X106246350Y-35665150D01*
X106258272Y-35609783D01*
X106289834Y-35553942D01*
X106336041Y-35503335D01*
X106391896Y-35463669D01*
X106440254Y-35443626D01*
X106514983Y-35433885D01*
X106587683Y-35444451D01*
X106654227Y-35472538D01*
X106710492Y-35515363D01*
X106752353Y-35570143D01*
X106775683Y-35634093D01*
X106779122Y-35672334D01*
X106931280Y-35672334D01*
X106940950Y-35661593D01*
X106998255Y-35615821D01*
X107057544Y-35583850D01*
X107113133Y-35570115D01*
X107120123Y-35569900D01*
X107161163Y-35580261D01*
X107189852Y-35608615D01*
X107206382Y-35650865D01*
X107210942Y-35702916D01*
X107300712Y-35702916D01*
X107318407Y-35644283D01*
X107339461Y-35587358D01*
X107360040Y-35542269D01*
X107366000Y-35531800D01*
X107402271Y-35451570D01*
X107418282Y-35364897D01*
X107417563Y-35352386D01*
X107355043Y-35352386D01*
X107341562Y-35433399D01*
X107305570Y-35509693D01*
X107305112Y-35510392D01*
X107280232Y-35542332D01*
X107259342Y-35551315D01*
X107237507Y-35537199D01*
X107215113Y-35507812D01*
X107194151Y-35465957D01*
X107177819Y-35412109D01*
X107166292Y-35351056D01*
X107159747Y-35287583D01*
X107158654Y-35239471D01*
X107069131Y-35239471D01*
X107063812Y-35311494D01*
X107043847Y-35365956D01*
X106999493Y-35427059D01*
X106943107Y-35466753D01*
X106877449Y-35484278D01*
X106805279Y-35478872D01*
X106732918Y-35451658D01*
X106682522Y-35413923D01*
X106636664Y-35358787D01*
X106601552Y-35294193D01*
X106593888Y-35273697D01*
X106577918Y-35195167D01*
X106579037Y-35173959D01*
X106462961Y-35173959D01*
X106452862Y-35244810D01*
X106425085Y-35314526D01*
X106378776Y-35379241D01*
X106375950Y-35382286D01*
X106313583Y-35432576D01*
X106241670Y-35459902D01*
X106160366Y-35465225D01*
X106113150Y-35460871D01*
X106081307Y-35451861D01*
X106054822Y-35434428D01*
X106038322Y-35419313D01*
X105992991Y-35358982D01*
X105970826Y-35288836D01*
X105971963Y-35210573D01*
X105912769Y-35210573D01*
X105911764Y-35273753D01*
X105904039Y-35341064D01*
X105889915Y-35407512D01*
X105869716Y-35468103D01*
X105845174Y-35515717D01*
X105822753Y-35539321D01*
X105799511Y-35540126D01*
X105773083Y-35517512D01*
X105754371Y-35491928D01*
X105725310Y-35427507D01*
X105712636Y-35352404D01*
X105716877Y-35275780D01*
X105737957Y-35208040D01*
X105762968Y-35168635D01*
X105795524Y-35133339D01*
X105829733Y-35107079D01*
X105859704Y-35094780D01*
X105872245Y-35095750D01*
X105893332Y-35116578D01*
X105906732Y-35156516D01*
X105912769Y-35210573D01*
X105971963Y-35210573D01*
X105971975Y-35209798D01*
X105992470Y-35133411D01*
X106030998Y-35060827D01*
X106084848Y-35002238D01*
X106149619Y-34960654D01*
X106220912Y-34939085D01*
X106278096Y-34938077D01*
X106343610Y-34956578D01*
X106395706Y-34993284D01*
X106433531Y-35044328D01*
X106456233Y-35105843D01*
X106462961Y-35173959D01*
X106579037Y-35173959D01*
X106581792Y-35121759D01*
X106603535Y-35056948D01*
X106641174Y-35004207D01*
X106692734Y-34967011D01*
X106756242Y-34948833D01*
X106779178Y-34947600D01*
X106852894Y-34959113D01*
X106919901Y-34990927D01*
X106977613Y-35038957D01*
X107023446Y-35099116D01*
X107054814Y-35167316D01*
X107069131Y-35239471D01*
X107158654Y-35239471D01*
X107158358Y-35226476D01*
X107162302Y-35172520D01*
X107171753Y-35130502D01*
X107186887Y-35105208D01*
X107200162Y-35100000D01*
X107225998Y-35109500D01*
X107258940Y-35133944D01*
X107291852Y-35167243D01*
X107313892Y-35197015D01*
X107345868Y-35271857D01*
X107355043Y-35352386D01*
X107417563Y-35352386D01*
X107413828Y-35287498D01*
X107394590Y-35217157D01*
X107362854Y-35156020D01*
X107313608Y-35094728D01*
X107306647Y-35087300D01*
X107274348Y-35049980D01*
X107256303Y-35017527D01*
X107250136Y-34991682D01*
X107182627Y-34991682D01*
X107174415Y-35018250D01*
X107161620Y-35023800D01*
X107146777Y-35017351D01*
X107116920Y-35000351D01*
X107078185Y-34976313D01*
X107073550Y-34973329D01*
X107031964Y-34943610D01*
X106985279Y-34905733D01*
X106937312Y-34863391D01*
X106891880Y-34820275D01*
X106888099Y-34816386D01*
X106757937Y-34816386D01*
X106736114Y-34851501D01*
X106713289Y-34873704D01*
X106657389Y-34907627D01*
X106585836Y-34928130D01*
X106505139Y-34934207D01*
X106421805Y-34924849D01*
X106406206Y-34921241D01*
X106343149Y-34897567D01*
X106301080Y-34865050D01*
X106281001Y-34826142D01*
X106283914Y-34783295D01*
X106310821Y-34738962D01*
X106325105Y-34724498D01*
X106258700Y-34724498D01*
X106249562Y-34743243D01*
X106224765Y-34774238D01*
X106188236Y-34813561D01*
X106143905Y-34857293D01*
X106095699Y-34901511D01*
X106047545Y-34942294D01*
X106016455Y-34966343D01*
X105962589Y-35002597D01*
X105924260Y-35019926D01*
X105900066Y-35018334D01*
X105888608Y-34997824D01*
X105887749Y-34966650D01*
X105904608Y-34882005D01*
X105941832Y-34812525D01*
X105999546Y-34758022D01*
X106049150Y-34730060D01*
X106087513Y-34717410D01*
X106133197Y-34709288D01*
X106179676Y-34705867D01*
X106220425Y-34707321D01*
X106248919Y-34713823D01*
X106258700Y-34724498D01*
X106325105Y-34724498D01*
X106325594Y-34724003D01*
X106391487Y-34679392D01*
X106465842Y-34655196D01*
X106543418Y-34651141D01*
X106618978Y-34666955D01*
X106687283Y-34702364D01*
X106733750Y-34745289D01*
X106756908Y-34782498D01*
X106757937Y-34816386D01*
X106888099Y-34816386D01*
X106852798Y-34780078D01*
X106823882Y-34746492D01*
X106808949Y-34723209D01*
X106807983Y-34716382D01*
X106822876Y-34706241D01*
X106859831Y-34701413D01*
X106894952Y-34700954D01*
X106983420Y-34712877D01*
X107057656Y-34745480D01*
X107116229Y-34797540D01*
X107157711Y-34867833D01*
X107178966Y-34943958D01*
X107182627Y-34991682D01*
X107250136Y-34991682D01*
X107247057Y-34978783D01*
X107244793Y-34960791D01*
X107227189Y-34882242D01*
X107194264Y-34808028D01*
X107150042Y-34745757D01*
X107113552Y-34712650D01*
X107076271Y-34683568D01*
X107061009Y-34665153D01*
X107067181Y-34656476D01*
X107077558Y-34655500D01*
X107097528Y-34645748D01*
X107116794Y-34624245D01*
X107140258Y-34598436D01*
X107162264Y-34585058D01*
X107187312Y-34567616D01*
X107199716Y-34549638D01*
X107213680Y-34524313D01*
X107236708Y-34487665D01*
X107256138Y-34458795D01*
X107279895Y-34420093D01*
X107295858Y-34385536D01*
X107300100Y-34367469D01*
X107304672Y-34342206D01*
X107311397Y-34332517D01*
X107322808Y-34313223D01*
X107331080Y-34276367D01*
X107335877Y-34229632D01*
X107335935Y-34226720D01*
X107282875Y-34226720D01*
X107278457Y-34236719D01*
X107258825Y-34255242D01*
X107232767Y-34281072D01*
X107224720Y-34295939D01*
X107235505Y-34297768D01*
X107242950Y-34295307D01*
X107258771Y-34292236D01*
X107258812Y-34302757D01*
X107242670Y-34329324D01*
X107235736Y-34339214D01*
X107220315Y-34365297D01*
X107222794Y-34375988D01*
X107226211Y-34376501D01*
X107228566Y-34383809D01*
X107214321Y-34401630D01*
X107205973Y-34409408D01*
X107183237Y-34432727D01*
X107180205Y-34447019D01*
X107185624Y-34452190D01*
X107189373Y-34462686D01*
X107171397Y-34478006D01*
X107152752Y-34488572D01*
X107126680Y-34504044D01*
X107116658Y-34513701D01*
X107119125Y-34515238D01*
X107134815Y-34520847D01*
X107130343Y-34533089D01*
X107108593Y-34547920D01*
X107090217Y-34555749D01*
X107060350Y-34571075D01*
X107051256Y-34586667D01*
X107051718Y-34588321D01*
X107047472Y-34600006D01*
X107021283Y-34604560D01*
X107012593Y-34604700D01*
X106982521Y-34607117D01*
X106972921Y-34615902D01*
X106974493Y-34623750D01*
X106969465Y-34636947D01*
X106944180Y-34642771D01*
X106902728Y-34641090D01*
X106849198Y-34631773D01*
X106834375Y-34628227D01*
X106793873Y-34611999D01*
X106752840Y-34586053D01*
X106717809Y-34555748D01*
X106695311Y-34526441D01*
X106690500Y-34510203D01*
X106700771Y-34489596D01*
X106729150Y-34458927D01*
X106771987Y-34421239D01*
X106825632Y-34379575D01*
X106886434Y-34336978D01*
X106936793Y-34304872D01*
X106980211Y-34277557D01*
X107010396Y-34256799D01*
X107024360Y-34244792D01*
X107020700Y-34243253D01*
X106985631Y-34256494D01*
X106935728Y-34279731D01*
X106877642Y-34309412D01*
X106818023Y-34341981D01*
X106763521Y-34373886D01*
X106720787Y-34401572D01*
X106710845Y-34408837D01*
X106669756Y-34435943D01*
X106639600Y-34443427D01*
X106615093Y-34431215D01*
X106596012Y-34407230D01*
X106578733Y-34358685D01*
X106579148Y-34349728D01*
X106465533Y-34349728D01*
X106457928Y-34389765D01*
X106434275Y-34422906D01*
X106430151Y-34426899D01*
X106399754Y-34455456D01*
X106338752Y-34410938D01*
X106305009Y-34388588D01*
X106260164Y-34361987D01*
X106209143Y-34333674D01*
X106156872Y-34306191D01*
X106108278Y-34282078D01*
X106068284Y-34263876D01*
X106041819Y-34254125D01*
X106033946Y-34253721D01*
X106039859Y-34262743D01*
X106062275Y-34277416D01*
X106070195Y-34281635D01*
X106113318Y-34306355D01*
X106166013Y-34340404D01*
X106221371Y-34378891D01*
X106272482Y-34416924D01*
X106312437Y-34449613D01*
X106327153Y-34463541D01*
X106348742Y-34491598D01*
X106352427Y-34516659D01*
X106337073Y-34544504D01*
X106304682Y-34577995D01*
X106275297Y-34598153D01*
X106235783Y-34615775D01*
X106191543Y-34629779D01*
X106147975Y-34639084D01*
X106110480Y-34642607D01*
X106084458Y-34639267D01*
X106075310Y-34627982D01*
X106076308Y-34623750D01*
X106075205Y-34609971D01*
X106054564Y-34604904D01*
X106045198Y-34604700D01*
X106007187Y-34601905D01*
X105981712Y-34594792D01*
X105973764Y-34585268D01*
X105979093Y-34579428D01*
X105979980Y-34569129D01*
X105958213Y-34555727D01*
X105954758Y-34554255D01*
X105928147Y-34539120D01*
X105915892Y-34524039D01*
X105915800Y-34522961D01*
X105905406Y-34508379D01*
X105879388Y-34490166D01*
X105868175Y-34484176D01*
X105840414Y-34468729D01*
X105834304Y-34459686D01*
X105844028Y-34455251D01*
X105857108Y-34449930D01*
X105855142Y-34439275D01*
X105836544Y-34417661D01*
X105832127Y-34413027D01*
X105812523Y-34388856D01*
X105810801Y-34376883D01*
X105814200Y-34376100D01*
X105818734Y-34368663D01*
X105804471Y-34348018D01*
X105797527Y-34340480D01*
X105771405Y-34310191D01*
X105764609Y-34294319D01*
X105777362Y-34293530D01*
X105782450Y-34295307D01*
X105799128Y-34297211D01*
X105796759Y-34282713D01*
X105775315Y-34251644D01*
X105774889Y-34251103D01*
X105758503Y-34227884D01*
X105758318Y-34217060D01*
X105768539Y-34213243D01*
X105786165Y-34204697D01*
X105784255Y-34187262D01*
X105770154Y-34165802D01*
X105753852Y-34139263D01*
X105757548Y-34125833D01*
X105783095Y-34122919D01*
X105799956Y-34124129D01*
X105831718Y-34125251D01*
X105843376Y-34119355D01*
X105842272Y-34110744D01*
X105842478Y-34100307D01*
X105857390Y-34097168D01*
X105891887Y-34100419D01*
X105895272Y-34100878D01*
X105932261Y-34104239D01*
X105947205Y-34100737D01*
X105946369Y-34094788D01*
X105948026Y-34086542D01*
X105970285Y-34086961D01*
X105986222Y-34089619D01*
X106016420Y-34094341D01*
X106026188Y-34091826D01*
X106019831Y-34080602D01*
X106018253Y-34078677D01*
X106008174Y-34063596D01*
X106014172Y-34059911D01*
X106038820Y-34067565D01*
X106063809Y-34077650D01*
X106097391Y-34091319D01*
X106112618Y-34094992D01*
X106114600Y-34088395D01*
X106109950Y-34075191D01*
X106108249Y-34063958D01*
X106119237Y-34065840D01*
X106146857Y-34081595D01*
X106148448Y-34082577D01*
X106179729Y-34099528D01*
X106194838Y-34100218D01*
X106197220Y-34084522D01*
X106196704Y-34080825D01*
X106201660Y-34071286D01*
X106218381Y-34077805D01*
X106239922Y-34097000D01*
X106259182Y-34113374D01*
X106271850Y-34109356D01*
X106273941Y-34106525D01*
X106285747Y-34100542D01*
X106303796Y-34114179D01*
X106313523Y-34125362D01*
X106336528Y-34147874D01*
X106352686Y-34149311D01*
X106356276Y-34146444D01*
X106370758Y-34147083D01*
X106391420Y-34165661D01*
X106414515Y-34196737D01*
X106436297Y-34234870D01*
X106453021Y-34274617D01*
X106458722Y-34295270D01*
X106465533Y-34349728D01*
X106579148Y-34349728D01*
X106581453Y-34300059D01*
X106601037Y-34242750D01*
X106621970Y-34203622D01*
X106643492Y-34170680D01*
X106662150Y-34148261D01*
X106674488Y-34140704D01*
X106677518Y-34146701D01*
X106684788Y-34152598D01*
X106706176Y-34137555D01*
X106713420Y-34130826D01*
X106739881Y-34108184D01*
X106758362Y-34097196D01*
X106764644Y-34099787D01*
X106760350Y-34109400D01*
X106757138Y-34121355D01*
X106768721Y-34118899D01*
X106790309Y-34103797D01*
X106800807Y-34094486D01*
X106821000Y-34077457D01*
X106829076Y-34078108D01*
X106830200Y-34088136D01*
X106834397Y-34105805D01*
X106849129Y-34105389D01*
X106877615Y-34086626D01*
X106881000Y-34084000D01*
X106911615Y-34063173D01*
X106925709Y-34061471D01*
X106923730Y-34077554D01*
X106921734Y-34088645D01*
X106931900Y-34088969D01*
X106959491Y-34078525D01*
X106961821Y-34077554D01*
X106998882Y-34063129D01*
X107015738Y-34060024D01*
X107014952Y-34068302D01*
X107007148Y-34078677D01*
X106999206Y-34091002D01*
X107006890Y-34094448D01*
X107034507Y-34090487D01*
X107039179Y-34089619D01*
X107071026Y-34085755D01*
X107080742Y-34090630D01*
X107079277Y-34094392D01*
X107082594Y-34102138D01*
X107107530Y-34103261D01*
X107134884Y-34100696D01*
X107172347Y-34097212D01*
X107189974Y-34099211D01*
X107192967Y-34107921D01*
X107191085Y-34113946D01*
X107190288Y-34127802D01*
X107205714Y-34133798D01*
X107230251Y-34134800D01*
X107260609Y-34136582D01*
X107271040Y-34144014D01*
X107268268Y-34157025D01*
X107254366Y-34195219D01*
X107252726Y-34215823D01*
X107263474Y-34223561D01*
X107270044Y-34224101D01*
X107282875Y-34226720D01*
X107335935Y-34226720D01*
X107336859Y-34180702D01*
X107333690Y-34137259D01*
X107326030Y-34106987D01*
X107321617Y-34100271D01*
X107297041Y-34085804D01*
X107277646Y-34080413D01*
X107247922Y-34070493D01*
X107233888Y-34060967D01*
X107211091Y-34050164D01*
X107179450Y-34045900D01*
X107147213Y-34041800D01*
X107126518Y-34032337D01*
X107107965Y-34024942D01*
X107071556Y-34017640D01*
X107024821Y-34011411D01*
X106975290Y-34007233D01*
X106930491Y-34006083D01*
X106925450Y-34006206D01*
X106894276Y-34007041D01*
X106859274Y-34007812D01*
X106828758Y-34011850D01*
X106811163Y-34020512D01*
X106810900Y-34020905D01*
X106793836Y-34029948D01*
X106767919Y-34033200D01*
X106732865Y-34042173D01*
X106709550Y-34058600D01*
X106684877Y-34077815D01*
X106665623Y-34084000D01*
X106641368Y-34094220D01*
X106610282Y-34121122D01*
X106577659Y-34159064D01*
X106548789Y-34202406D01*
X106541077Y-34216756D01*
X106515850Y-34266962D01*
X106489482Y-34215277D01*
X106459068Y-34163548D01*
X106426601Y-34121279D01*
X106396258Y-34093209D01*
X106373840Y-34084000D01*
X106348896Y-34075119D01*
X106328550Y-34058600D01*
X106298552Y-34039265D01*
X106270182Y-34033200D01*
X106241560Y-34029029D01*
X106226865Y-34020361D01*
X106209454Y-34010695D01*
X106184841Y-34007295D01*
X106145034Y-34006664D01*
X106119000Y-34005936D01*
X106074590Y-34006257D01*
G36*
X105483436Y-34270859D02*
G01*
X105379577Y-34415086D01*
X105298589Y-34559978D01*
X105238331Y-34710627D01*
X105196662Y-34872124D01*
X105176662Y-35000559D01*
X105169775Y-35160234D01*
X105185192Y-35324338D01*
X105221435Y-35488367D01*
X105277029Y-35647822D01*
X105350499Y-35798200D01*
X105440368Y-35935000D01*
X105510352Y-36018250D01*
X105571932Y-36084250D01*
X105572416Y-35923863D01*
X105572900Y-35763477D01*
X105528461Y-35689678D01*
X105474505Y-35589463D01*
X105435077Y-35489781D01*
X105408688Y-35384597D01*
X105393845Y-35267878D01*
X105389060Y-35133590D01*
X105389059Y-35125400D01*
X105391519Y-35014311D01*
X105399649Y-34921075D01*
X105415136Y-34838460D01*
X105439671Y-34759233D01*
X105474941Y-34676162D01*
X105510649Y-34604700D01*
X105573737Y-34484050D01*
X105570144Y-34325300D01*
X105566550Y-34166550D01*
X105483436Y-34270859D01*
G37*
X105483436Y-34270859D02*
X105379577Y-34415086D01*
X105298589Y-34559978D01*
X105238331Y-34710627D01*
X105196662Y-34872124D01*
X105176662Y-35000559D01*
X105169775Y-35160234D01*
X105185192Y-35324338D01*
X105221435Y-35488367D01*
X105277029Y-35647822D01*
X105350499Y-35798200D01*
X105440368Y-35935000D01*
X105510352Y-36018250D01*
X105571932Y-36084250D01*
X105572416Y-35923863D01*
X105572900Y-35763477D01*
X105528461Y-35689678D01*
X105474505Y-35589463D01*
X105435077Y-35489781D01*
X105408688Y-35384597D01*
X105393845Y-35267878D01*
X105389060Y-35133590D01*
X105389059Y-35125400D01*
X105391519Y-35014311D01*
X105399649Y-34921075D01*
X105415136Y-34838460D01*
X105439671Y-34759233D01*
X105474941Y-34676162D01*
X105510649Y-34604700D01*
X105573737Y-34484050D01*
X105570144Y-34325300D01*
X105566550Y-34166550D01*
X105483436Y-34270859D01*
G36*
X107480703Y-34386224D02*
G01*
X107479500Y-34455339D01*
X107479834Y-34505082D01*
X107482523Y-34541468D01*
X107488388Y-34570516D01*
X107498249Y-34598242D01*
X107512924Y-34630663D01*
X107514431Y-34633853D01*
X107575386Y-34791180D01*
X107612736Y-34953709D01*
X107626462Y-35118609D01*
X107616541Y-35283053D01*
X107582953Y-35444209D01*
X107525677Y-35599249D01*
X107521625Y-35608000D01*
X107477009Y-35703250D01*
X107480630Y-35870782D01*
X107484250Y-36038315D01*
X107524234Y-35990650D01*
X107613086Y-35869107D01*
X107691897Y-35730170D01*
X107756988Y-35581032D01*
X107797704Y-35455600D01*
X107808790Y-35411992D01*
X107816693Y-35371538D01*
X107821904Y-35328555D01*
X107824916Y-35277360D01*
X107826221Y-35212271D01*
X107826310Y-35127604D01*
X107826302Y-35125400D01*
X107825474Y-35037844D01*
X107823429Y-34970169D01*
X107819688Y-34916866D01*
X107813771Y-34872428D01*
X107805200Y-34831346D01*
X107798489Y-34805671D01*
X107736317Y-34623991D01*
X107654008Y-34456882D01*
X107550416Y-34302050D01*
X107541400Y-34290413D01*
X107484250Y-34217392D01*
X107480703Y-34386224D01*
G37*
X107480703Y-34386224D02*
X107479500Y-34455339D01*
X107479834Y-34505082D01*
X107482523Y-34541468D01*
X107488388Y-34570516D01*
X107498249Y-34598242D01*
X107512924Y-34630663D01*
X107514431Y-34633853D01*
X107575386Y-34791180D01*
X107612736Y-34953709D01*
X107626462Y-35118609D01*
X107616541Y-35283053D01*
X107582953Y-35444209D01*
X107525677Y-35599249D01*
X107521625Y-35608000D01*
X107477009Y-35703250D01*
X107480630Y-35870782D01*
X107484250Y-36038315D01*
X107524234Y-35990650D01*
X107613086Y-35869107D01*
X107691897Y-35730170D01*
X107756988Y-35581032D01*
X107797704Y-35455600D01*
X107808790Y-35411992D01*
X107816693Y-35371538D01*
X107821904Y-35328555D01*
X107824916Y-35277360D01*
X107826221Y-35212271D01*
X107826310Y-35127604D01*
X107826302Y-35125400D01*
X107825474Y-35037844D01*
X107823429Y-34970169D01*
X107819688Y-34916866D01*
X107813771Y-34872428D01*
X107805200Y-34831346D01*
X107798489Y-34805671D01*
X107736317Y-34623991D01*
X107654008Y-34456882D01*
X107550416Y-34302050D01*
X107541400Y-34290413D01*
X107484250Y-34217392D01*
X107480703Y-34386224D01*
G36*
X107058800Y-34230050D02*
G01*
X107065150Y-34236400D01*
X107071500Y-34230050D01*
X107065150Y-34223700D01*
X107058800Y-34230050D01*
G37*
X107058800Y-34230050D02*
X107065150Y-34236400D01*
X107071500Y-34230050D01*
X107065150Y-34223700D01*
X107058800Y-34230050D01*
G36*
X106004700Y-34242750D02*
G01*
X106011050Y-34249100D01*
X106017400Y-34242750D01*
X106011050Y-34236400D01*
X106004700Y-34242750D01*
G37*
X106004700Y-34242750D02*
X106011050Y-34249100D01*
X106017400Y-34242750D01*
X106011050Y-34236400D01*
X106004700Y-34242750D01*
D12*
X127500000Y-59300000D02*
X127500000Y-59700000D01*
X127500000Y-56700000D02*
X127500000Y-57100000D01*
X127500000Y-68700000D02*
X127500000Y-61900000D01*
X117100000Y-68700000D02*
X117500000Y-68700000D01*
X109400000Y-68700000D02*
X109800000Y-68700000D01*
X84000000Y-68700000D02*
X84400000Y-68700000D01*
X76500000Y-68700000D02*
X76800000Y-68700000D01*
X99300000Y-68700000D02*
X99700000Y-68700000D01*
X114500000Y-68700000D02*
X114900000Y-68700000D01*
X94200000Y-68700000D02*
X94600000Y-68700000D01*
X89100000Y-68700000D02*
X89500000Y-68700000D01*
X101800000Y-68700000D02*
X102200000Y-68700000D01*
X106900000Y-68700000D02*
X107300000Y-68700000D01*
X122100000Y-68700000D02*
X122500000Y-68700000D01*
X124700000Y-68700000D02*
X125100000Y-68700000D01*
X119600000Y-68700000D02*
X120000000Y-68700000D01*
X86600000Y-68700000D02*
X87000000Y-68700000D01*
X78900000Y-68700000D02*
X79300000Y-68700000D01*
X81500000Y-68700000D02*
X81900000Y-68700000D01*
X112000000Y-68700000D02*
X112400000Y-68700000D01*
X104300000Y-68700000D02*
X104700000Y-68700000D01*
X96700000Y-68700000D02*
X97100000Y-68700000D01*
X91600000Y-68700000D02*
X92000000Y-68700000D01*
X124700000Y-47700000D02*
X125100000Y-47700000D01*
X122100000Y-47700000D02*
X122500000Y-47700000D01*
X119600000Y-47700000D02*
X120000000Y-47700000D01*
X117100000Y-47700000D02*
X117500000Y-47700000D01*
X114500000Y-47700000D02*
X114900000Y-47700000D01*
X112000000Y-47700000D02*
X112400000Y-47700000D01*
X109400000Y-47700000D02*
X109800000Y-47700000D01*
X106900000Y-47700000D02*
X107300000Y-47700000D01*
X104300000Y-47700000D02*
X104700000Y-47700000D01*
X101800000Y-47700000D02*
X102200000Y-47700000D01*
X99300000Y-47700000D02*
X99700000Y-47700000D01*
X96700000Y-47700000D02*
X97100000Y-47700000D01*
X94200000Y-47700000D02*
X94600000Y-47700000D01*
X91600000Y-47700000D02*
X92000000Y-47700000D01*
X89100000Y-47700000D02*
X89500000Y-47700000D01*
X86600000Y-47700000D02*
X87000000Y-47700000D01*
X84000000Y-47700000D02*
X84400000Y-47700000D01*
X81500000Y-47700000D02*
X81900000Y-47700000D01*
X78900000Y-47700000D02*
X79300000Y-47700000D01*
X76500000Y-47700000D02*
X76800000Y-47700000D01*
X79167000Y-50707000D02*
X76500000Y-50707000D01*
X79167000Y-47700000D02*
X79167000Y-50707000D01*
X127500000Y-54500000D02*
X127500000Y-47700000D01*
X76500000Y-47700000D02*
X76500000Y-68700000D01*
D13*
X101452380Y-57438095D02*
X102261904Y-57438095D01*
X102357142Y-57485714D01*
X102404761Y-57533333D01*
X102452380Y-57628571D01*
X102452380Y-57819047D01*
X102404761Y-57914285D01*
X102357142Y-57961904D01*
X102261904Y-58009523D01*
X101452380Y-58009523D01*
X102452380Y-59009523D02*
X102452380Y-58438095D01*
X102452380Y-58723809D02*
X101452380Y-58723809D01*
X101595238Y-58628571D01*
X101690476Y-58533333D01*
X101738095Y-58438095D01*
X104611380Y-52200000D02*
X104135190Y-51866666D01*
X104611380Y-51628571D02*
X103611380Y-51628571D01*
X103611380Y-52009523D01*
X103659000Y-52104761D01*
X103706619Y-52152380D01*
X103801857Y-52200000D01*
X103944714Y-52200000D01*
X104039952Y-52152380D01*
X104087571Y-52104761D01*
X104135190Y-52009523D01*
X104135190Y-51628571D01*
X104611380Y-53057142D02*
X104087571Y-53057142D01*
X103992333Y-53009523D01*
X103944714Y-52914285D01*
X103944714Y-52723809D01*
X103992333Y-52628571D01*
X104563761Y-53057142D02*
X104611380Y-52961904D01*
X104611380Y-52723809D01*
X104563761Y-52628571D01*
X104468523Y-52580952D01*
X104373285Y-52580952D01*
X104278047Y-52628571D01*
X104230428Y-52723809D01*
X104230428Y-52961904D01*
X104182809Y-53057142D01*
X104563761Y-53485714D02*
X104611380Y-53580952D01*
X104611380Y-53771428D01*
X104563761Y-53866666D01*
X104468523Y-53914285D01*
X104420904Y-53914285D01*
X104325666Y-53866666D01*
X104278047Y-53771428D01*
X104278047Y-53628571D01*
X104230428Y-53533333D01*
X104135190Y-53485714D01*
X104087571Y-53485714D01*
X103992333Y-53533333D01*
X103944714Y-53628571D01*
X103944714Y-53771428D01*
X103992333Y-53866666D01*
X103944714Y-54342857D02*
X104944714Y-54342857D01*
X103992333Y-54342857D02*
X103944714Y-54438095D01*
X103944714Y-54628571D01*
X103992333Y-54723809D01*
X104039952Y-54771428D01*
X104135190Y-54819047D01*
X104420904Y-54819047D01*
X104516142Y-54771428D01*
X104563761Y-54723809D01*
X104611380Y-54628571D01*
X104611380Y-54438095D01*
X104563761Y-54342857D01*
X104611380Y-55247619D02*
X103611380Y-55247619D01*
X103992333Y-55247619D02*
X103944714Y-55342857D01*
X103944714Y-55533333D01*
X103992333Y-55628571D01*
X104039952Y-55676190D01*
X104135190Y-55723809D01*
X104420904Y-55723809D01*
X104516142Y-55676190D01*
X104563761Y-55628571D01*
X104611380Y-55533333D01*
X104611380Y-55342857D01*
X104563761Y-55247619D01*
X104563761Y-56533333D02*
X104611380Y-56438095D01*
X104611380Y-56247619D01*
X104563761Y-56152380D01*
X104468523Y-56104761D01*
X104087571Y-56104761D01*
X103992333Y-56152380D01*
X103944714Y-56247619D01*
X103944714Y-56438095D01*
X103992333Y-56533333D01*
X104087571Y-56580952D01*
X104182809Y-56580952D01*
X104278047Y-56104761D01*
X104611380Y-57009523D02*
X103944714Y-57009523D01*
X104135190Y-57009523D02*
X104039952Y-57057142D01*
X103992333Y-57104761D01*
X103944714Y-57200000D01*
X103944714Y-57295238D01*
X104611380Y-57628571D02*
X103944714Y-57628571D01*
X104135190Y-57628571D02*
X104039952Y-57676190D01*
X103992333Y-57723809D01*
X103944714Y-57819047D01*
X103944714Y-57914285D01*
X103944714Y-58152380D02*
X104611380Y-58390476D01*
X103944714Y-58628571D02*
X104611380Y-58390476D01*
X104849476Y-58295238D01*
X104897095Y-58247619D01*
X104944714Y-58152380D01*
X104611380Y-59771428D02*
X103611380Y-59771428D01*
X103611380Y-60152380D01*
X103659000Y-60247619D01*
X103706619Y-60295238D01*
X103801857Y-60342857D01*
X103944714Y-60342857D01*
X104039952Y-60295238D01*
X104087571Y-60247619D01*
X104135190Y-60152380D01*
X104135190Y-59771428D01*
X104611380Y-60771428D02*
X103944714Y-60771428D01*
X103611380Y-60771428D02*
X103659000Y-60723809D01*
X103706619Y-60771428D01*
X103659000Y-60819047D01*
X103611380Y-60771428D01*
X103706619Y-60771428D01*
X104611380Y-62009523D02*
X103611380Y-62009523D01*
X103611380Y-62390476D01*
X103659000Y-62485714D01*
X103706619Y-62533333D01*
X103801857Y-62580952D01*
X103944714Y-62580952D01*
X104039952Y-62533333D01*
X104087571Y-62485714D01*
X104135190Y-62390476D01*
X104135190Y-62009523D01*
X104611380Y-63009523D02*
X103944714Y-63009523D01*
X103611380Y-63009523D02*
X103659000Y-62961904D01*
X103706619Y-63009523D01*
X103659000Y-63057142D01*
X103611380Y-63009523D01*
X103706619Y-63009523D01*
X104563761Y-63914285D02*
X104611380Y-63819047D01*
X104611380Y-63628571D01*
X104563761Y-63533333D01*
X104516142Y-63485714D01*
X104420904Y-63438095D01*
X104135190Y-63438095D01*
X104039952Y-63485714D01*
X103992333Y-63533333D01*
X103944714Y-63628571D01*
X103944714Y-63819047D01*
X103992333Y-63914285D01*
X104611380Y-64485714D02*
X104563761Y-64390476D01*
X104516142Y-64342857D01*
X104420904Y-64295238D01*
X104135190Y-64295238D01*
X104039952Y-64342857D01*
X103992333Y-64390476D01*
X103944714Y-64485714D01*
X103944714Y-64628571D01*
X103992333Y-64723809D01*
X104039952Y-64771428D01*
X104135190Y-64819047D01*
X104420904Y-64819047D01*
X104516142Y-64771428D01*
X104563761Y-64723809D01*
X104611380Y-64628571D01*
X104611380Y-64485714D01*
X80521218Y-44613096D02*
X80548155Y-44532284D01*
X80628967Y-44451471D01*
X80736717Y-44397597D01*
X80844467Y-44397597D01*
X80925279Y-44424534D01*
X81059966Y-44505346D01*
X81140778Y-44586158D01*
X81221590Y-44720845D01*
X81248528Y-44801658D01*
X81248528Y-44909407D01*
X81194653Y-45017157D01*
X81140778Y-45071032D01*
X81033028Y-45124906D01*
X80979154Y-45124906D01*
X80790592Y-44936345D01*
X80898341Y-44828595D01*
X80790592Y-45421218D02*
X80224906Y-44855532D01*
X80009407Y-45071032D01*
X79982470Y-45151844D01*
X79982470Y-45205719D01*
X80009407Y-45286531D01*
X80090219Y-45367343D01*
X80171032Y-45394280D01*
X80224906Y-45394280D01*
X80305719Y-45367343D01*
X80521218Y-45151844D01*
X79928595Y-46283215D02*
X80251844Y-45959966D01*
X80090219Y-46121590D02*
X79524534Y-45555905D01*
X79659221Y-45582842D01*
X79766971Y-45582842D01*
X79847783Y-45555905D01*
X85611218Y-44613096D02*
X85638155Y-44532284D01*
X85718967Y-44451471D01*
X85826717Y-44397597D01*
X85934467Y-44397597D01*
X86015279Y-44424534D01*
X86149966Y-44505346D01*
X86230778Y-44586158D01*
X86311590Y-44720845D01*
X86338528Y-44801658D01*
X86338528Y-44909407D01*
X86284653Y-45017157D01*
X86230778Y-45071032D01*
X86123028Y-45124906D01*
X86069154Y-45124906D01*
X85880592Y-44936345D01*
X85988341Y-44828595D01*
X85880592Y-45421218D02*
X85314906Y-44855532D01*
X85099407Y-45071032D01*
X85072470Y-45151844D01*
X85072470Y-45205719D01*
X85099407Y-45286531D01*
X85180219Y-45367343D01*
X85261032Y-45394280D01*
X85314906Y-45394280D01*
X85395719Y-45367343D01*
X85611218Y-45151844D01*
X84830033Y-45448155D02*
X84776158Y-45448155D01*
X84695346Y-45475093D01*
X84560659Y-45609780D01*
X84533722Y-45690592D01*
X84533722Y-45744467D01*
X84560659Y-45825279D01*
X84614534Y-45879154D01*
X84722284Y-45933028D01*
X85368781Y-45933028D01*
X85018595Y-46283215D01*
X77991218Y-44713096D02*
X78018155Y-44632284D01*
X78098967Y-44551471D01*
X78206717Y-44497597D01*
X78314467Y-44497597D01*
X78395279Y-44524534D01*
X78529966Y-44605346D01*
X78610778Y-44686158D01*
X78691590Y-44820845D01*
X78718528Y-44901658D01*
X78718528Y-45009407D01*
X78664653Y-45117157D01*
X78610778Y-45171032D01*
X78503028Y-45224906D01*
X78449154Y-45224906D01*
X78260592Y-45036345D01*
X78368341Y-44928595D01*
X78260592Y-45521218D02*
X77694906Y-44955532D01*
X77479407Y-45171032D01*
X77452470Y-45251844D01*
X77452470Y-45305719D01*
X77479407Y-45386531D01*
X77560219Y-45467343D01*
X77641032Y-45494280D01*
X77694906Y-45494280D01*
X77775719Y-45467343D01*
X77991218Y-45251844D01*
X77021471Y-45628967D02*
X76967597Y-45682842D01*
X76940659Y-45763654D01*
X76940659Y-45817529D01*
X76967597Y-45898341D01*
X77048409Y-46033028D01*
X77183096Y-46167715D01*
X77317783Y-46248528D01*
X77398595Y-46275465D01*
X77452470Y-46275465D01*
X77533282Y-46248528D01*
X77587157Y-46194653D01*
X77614094Y-46113841D01*
X77614094Y-46059966D01*
X77587157Y-45979154D01*
X77506345Y-45844467D01*
X77371658Y-45709780D01*
X77236971Y-45628967D01*
X77156158Y-45602030D01*
X77102284Y-45602030D01*
X77021471Y-45628967D01*
X88151218Y-44713096D02*
X88178155Y-44632284D01*
X88258967Y-44551471D01*
X88366717Y-44497597D01*
X88474467Y-44497597D01*
X88555279Y-44524534D01*
X88689966Y-44605346D01*
X88770778Y-44686158D01*
X88851590Y-44820845D01*
X88878528Y-44901658D01*
X88878528Y-45009407D01*
X88824653Y-45117157D01*
X88770778Y-45171032D01*
X88663028Y-45224906D01*
X88609154Y-45224906D01*
X88420592Y-45036345D01*
X88528341Y-44928595D01*
X88420592Y-45521218D02*
X87854906Y-44955532D01*
X87639407Y-45171032D01*
X87612470Y-45251844D01*
X87612470Y-45305719D01*
X87639407Y-45386531D01*
X87720219Y-45467343D01*
X87801032Y-45494280D01*
X87854906Y-45494280D01*
X87935719Y-45467343D01*
X88151218Y-45251844D01*
X87343096Y-45467343D02*
X86992910Y-45817529D01*
X87396971Y-45844467D01*
X87316158Y-45925279D01*
X87289221Y-46006091D01*
X87289221Y-46059966D01*
X87316158Y-46140778D01*
X87450845Y-46275465D01*
X87531658Y-46302402D01*
X87585532Y-46302402D01*
X87666345Y-46275465D01*
X87827969Y-46113841D01*
X87854906Y-46033028D01*
X87854906Y-45979154D01*
X90691218Y-44713096D02*
X90718155Y-44632284D01*
X90798967Y-44551471D01*
X90906717Y-44497597D01*
X91014467Y-44497597D01*
X91095279Y-44524534D01*
X91229966Y-44605346D01*
X91310778Y-44686158D01*
X91391590Y-44820845D01*
X91418528Y-44901658D01*
X91418528Y-45009407D01*
X91364653Y-45117157D01*
X91310778Y-45171032D01*
X91203028Y-45224906D01*
X91149154Y-45224906D01*
X90960592Y-45036345D01*
X91068341Y-44928595D01*
X90960592Y-45521218D02*
X90394906Y-44955532D01*
X90179407Y-45171032D01*
X90152470Y-45251844D01*
X90152470Y-45305719D01*
X90179407Y-45386531D01*
X90260219Y-45467343D01*
X90341032Y-45494280D01*
X90394906Y-45494280D01*
X90475719Y-45467343D01*
X90691218Y-45251844D01*
X89775346Y-45952216D02*
X90152470Y-46329340D01*
X89694534Y-45602030D02*
X90233282Y-45871404D01*
X89883096Y-46221590D01*
X93231218Y-44713096D02*
X93258155Y-44632284D01*
X93338967Y-44551471D01*
X93446717Y-44497597D01*
X93554467Y-44497597D01*
X93635279Y-44524534D01*
X93769966Y-44605346D01*
X93850778Y-44686158D01*
X93931590Y-44820845D01*
X93958528Y-44901658D01*
X93958528Y-45009407D01*
X93904653Y-45117157D01*
X93850778Y-45171032D01*
X93743028Y-45224906D01*
X93689154Y-45224906D01*
X93500592Y-45036345D01*
X93608341Y-44928595D01*
X93500592Y-45521218D02*
X92934906Y-44955532D01*
X92719407Y-45171032D01*
X92692470Y-45251844D01*
X92692470Y-45305719D01*
X92719407Y-45386531D01*
X92800219Y-45467343D01*
X92881032Y-45494280D01*
X92934906Y-45494280D01*
X93015719Y-45467343D01*
X93231218Y-45251844D01*
X92099847Y-45790592D02*
X92369221Y-45521218D01*
X92665532Y-45763654D01*
X92611658Y-45763654D01*
X92530845Y-45790592D01*
X92396158Y-45925279D01*
X92369221Y-46006091D01*
X92369221Y-46059966D01*
X92396158Y-46140778D01*
X92530845Y-46275465D01*
X92611658Y-46302402D01*
X92665532Y-46302402D01*
X92746345Y-46275465D01*
X92881032Y-46140778D01*
X92907969Y-46059966D01*
X92907969Y-46006091D01*
X98311218Y-44713096D02*
X98338155Y-44632284D01*
X98418967Y-44551471D01*
X98526717Y-44497597D01*
X98634467Y-44497597D01*
X98715279Y-44524534D01*
X98849966Y-44605346D01*
X98930778Y-44686158D01*
X99011590Y-44820845D01*
X99038528Y-44901658D01*
X99038528Y-45009407D01*
X98984653Y-45117157D01*
X98930778Y-45171032D01*
X98823028Y-45224906D01*
X98769154Y-45224906D01*
X98580592Y-45036345D01*
X98688341Y-44928595D01*
X98580592Y-45521218D02*
X98014906Y-44955532D01*
X97799407Y-45171032D01*
X97772470Y-45251844D01*
X97772470Y-45305719D01*
X97799407Y-45386531D01*
X97880219Y-45467343D01*
X97961032Y-45494280D01*
X98014906Y-45494280D01*
X98095719Y-45467343D01*
X98311218Y-45251844D01*
X97206784Y-45763654D02*
X97314534Y-45655905D01*
X97395346Y-45628967D01*
X97449221Y-45628967D01*
X97583908Y-45655905D01*
X97718595Y-45736717D01*
X97934094Y-45952216D01*
X97961032Y-46033028D01*
X97961032Y-46086903D01*
X97934094Y-46167715D01*
X97826345Y-46275465D01*
X97745532Y-46302402D01*
X97691658Y-46302402D01*
X97610845Y-46275465D01*
X97476158Y-46140778D01*
X97449221Y-46059966D01*
X97449221Y-46006091D01*
X97476158Y-45925279D01*
X97583908Y-45817529D01*
X97664720Y-45790592D01*
X97718595Y-45790592D01*
X97799407Y-45817529D01*
X100821218Y-44813096D02*
X100848155Y-44732284D01*
X100928967Y-44651471D01*
X101036717Y-44597597D01*
X101144467Y-44597597D01*
X101225279Y-44624534D01*
X101359966Y-44705346D01*
X101440778Y-44786158D01*
X101521590Y-44920845D01*
X101548528Y-45001658D01*
X101548528Y-45109407D01*
X101494653Y-45217157D01*
X101440778Y-45271032D01*
X101333028Y-45324906D01*
X101279154Y-45324906D01*
X101090592Y-45136345D01*
X101198341Y-45028595D01*
X101090592Y-45621218D02*
X100524906Y-45055532D01*
X100309407Y-45271032D01*
X100282470Y-45351844D01*
X100282470Y-45405719D01*
X100309407Y-45486531D01*
X100390219Y-45567343D01*
X100471032Y-45594280D01*
X100524906Y-45594280D01*
X100605719Y-45567343D01*
X100821218Y-45351844D01*
X100013096Y-45567343D02*
X99635972Y-45944467D01*
X100444094Y-46267715D01*
X103391218Y-44713096D02*
X103418155Y-44632284D01*
X103498967Y-44551471D01*
X103606717Y-44497597D01*
X103714467Y-44497597D01*
X103795279Y-44524534D01*
X103929966Y-44605346D01*
X104010778Y-44686158D01*
X104091590Y-44820845D01*
X104118528Y-44901658D01*
X104118528Y-45009407D01*
X104064653Y-45117157D01*
X104010778Y-45171032D01*
X103903028Y-45224906D01*
X103849154Y-45224906D01*
X103660592Y-45036345D01*
X103768341Y-44928595D01*
X103660592Y-45521218D02*
X103094906Y-44955532D01*
X102879407Y-45171032D01*
X102852470Y-45251844D01*
X102852470Y-45305719D01*
X102879407Y-45386531D01*
X102960219Y-45467343D01*
X103041032Y-45494280D01*
X103094906Y-45494280D01*
X103175719Y-45467343D01*
X103391218Y-45251844D01*
X102690845Y-45844467D02*
X102717783Y-45763654D01*
X102717783Y-45709780D01*
X102690845Y-45628967D01*
X102663908Y-45602030D01*
X102583096Y-45575093D01*
X102529221Y-45575093D01*
X102448409Y-45602030D01*
X102340659Y-45709780D01*
X102313722Y-45790592D01*
X102313722Y-45844467D01*
X102340659Y-45925279D01*
X102367597Y-45952216D01*
X102448409Y-45979154D01*
X102502284Y-45979154D01*
X102583096Y-45952216D01*
X102690845Y-45844467D01*
X102771658Y-45817529D01*
X102825532Y-45817529D01*
X102906345Y-45844467D01*
X103014094Y-45952216D01*
X103041032Y-46033028D01*
X103041032Y-46086903D01*
X103014094Y-46167715D01*
X102906345Y-46275465D01*
X102825532Y-46302402D01*
X102771658Y-46302402D01*
X102690845Y-46275465D01*
X102583096Y-46167715D01*
X102556158Y-46086903D01*
X102556158Y-46033028D01*
X102583096Y-45952216D01*
X105931218Y-44713096D02*
X105958155Y-44632284D01*
X106038967Y-44551471D01*
X106146717Y-44497597D01*
X106254467Y-44497597D01*
X106335279Y-44524534D01*
X106469966Y-44605346D01*
X106550778Y-44686158D01*
X106631590Y-44820845D01*
X106658528Y-44901658D01*
X106658528Y-45009407D01*
X106604653Y-45117157D01*
X106550778Y-45171032D01*
X106443028Y-45224906D01*
X106389154Y-45224906D01*
X106200592Y-45036345D01*
X106308341Y-44928595D01*
X106200592Y-45521218D02*
X105634906Y-44955532D01*
X105419407Y-45171032D01*
X105392470Y-45251844D01*
X105392470Y-45305719D01*
X105419407Y-45386531D01*
X105500219Y-45467343D01*
X105581032Y-45494280D01*
X105634906Y-45494280D01*
X105715719Y-45467343D01*
X105931218Y-45251844D01*
X105607969Y-46113841D02*
X105500219Y-46221590D01*
X105419407Y-46248528D01*
X105365532Y-46248528D01*
X105230845Y-46221590D01*
X105096158Y-46140778D01*
X104880659Y-45925279D01*
X104853722Y-45844467D01*
X104853722Y-45790592D01*
X104880659Y-45709780D01*
X104988409Y-45602030D01*
X105069221Y-45575093D01*
X105123096Y-45575093D01*
X105203908Y-45602030D01*
X105338595Y-45736717D01*
X105365532Y-45817529D01*
X105365532Y-45871404D01*
X105338595Y-45952216D01*
X105230845Y-46059966D01*
X105150033Y-46086903D01*
X105096158Y-46086903D01*
X105015346Y-46059966D01*
X111280592Y-44189722D02*
X111307529Y-44108910D01*
X111388341Y-44028097D01*
X111496091Y-43974223D01*
X111603841Y-43974223D01*
X111684653Y-44001160D01*
X111819340Y-44081972D01*
X111900152Y-44162784D01*
X111980964Y-44297471D01*
X112007902Y-44378284D01*
X112007902Y-44486033D01*
X111954027Y-44593783D01*
X111900152Y-44647658D01*
X111792402Y-44701532D01*
X111738528Y-44701532D01*
X111549966Y-44512971D01*
X111657715Y-44405221D01*
X111549966Y-44997844D02*
X110984280Y-44432158D01*
X110768781Y-44647658D01*
X110741844Y-44728470D01*
X110741844Y-44782345D01*
X110768781Y-44863157D01*
X110849593Y-44943969D01*
X110930406Y-44970906D01*
X110984280Y-44970906D01*
X111065093Y-44943969D01*
X111280592Y-44728470D01*
X110687969Y-45859841D02*
X111011218Y-45536592D01*
X110849593Y-45698216D02*
X110283908Y-45132531D01*
X110418595Y-45159468D01*
X110526345Y-45159468D01*
X110607157Y-45132531D01*
X109772097Y-45644341D02*
X109718223Y-45698216D01*
X109691285Y-45779028D01*
X109691285Y-45832903D01*
X109718223Y-45913715D01*
X109799035Y-46048402D01*
X109933722Y-46183089D01*
X110068409Y-46263902D01*
X110149221Y-46290839D01*
X110203096Y-46290839D01*
X110283908Y-46263902D01*
X110337783Y-46210027D01*
X110364720Y-46129215D01*
X110364720Y-46075340D01*
X110337783Y-45994528D01*
X110256971Y-45859841D01*
X110122284Y-45725154D01*
X109987597Y-45644341D01*
X109906784Y-45617404D01*
X109852910Y-45617404D01*
X109772097Y-45644341D01*
X113820592Y-44043722D02*
X113847529Y-43962910D01*
X113928341Y-43882097D01*
X114036091Y-43828223D01*
X114143841Y-43828223D01*
X114224653Y-43855160D01*
X114359340Y-43935972D01*
X114440152Y-44016784D01*
X114520964Y-44151471D01*
X114547902Y-44232284D01*
X114547902Y-44340033D01*
X114494027Y-44447783D01*
X114440152Y-44501658D01*
X114332402Y-44555532D01*
X114278528Y-44555532D01*
X114089966Y-44366971D01*
X114197715Y-44259221D01*
X114089966Y-44851844D02*
X113524280Y-44286158D01*
X113308781Y-44501658D01*
X113281844Y-44582470D01*
X113281844Y-44636345D01*
X113308781Y-44717157D01*
X113389593Y-44797969D01*
X113470406Y-44824906D01*
X113524280Y-44824906D01*
X113605093Y-44797969D01*
X113820592Y-44582470D01*
X113227969Y-45713841D02*
X113551218Y-45390592D01*
X113389593Y-45552216D02*
X112823908Y-44986531D01*
X112958595Y-45013468D01*
X113066345Y-45013468D01*
X113147157Y-44986531D01*
X112689221Y-46252589D02*
X113012470Y-45929340D01*
X112850845Y-46090964D02*
X112285160Y-45525279D01*
X112419847Y-45552216D01*
X112527597Y-45552216D01*
X112608409Y-45525279D01*
X116360592Y-44043722D02*
X116387529Y-43962910D01*
X116468341Y-43882097D01*
X116576091Y-43828223D01*
X116683841Y-43828223D01*
X116764653Y-43855160D01*
X116899340Y-43935972D01*
X116980152Y-44016784D01*
X117060964Y-44151471D01*
X117087902Y-44232284D01*
X117087902Y-44340033D01*
X117034027Y-44447783D01*
X116980152Y-44501658D01*
X116872402Y-44555532D01*
X116818528Y-44555532D01*
X116629966Y-44366971D01*
X116737715Y-44259221D01*
X116629966Y-44851844D02*
X116064280Y-44286158D01*
X115848781Y-44501658D01*
X115821844Y-44582470D01*
X115821844Y-44636345D01*
X115848781Y-44717157D01*
X115929593Y-44797969D01*
X116010406Y-44824906D01*
X116064280Y-44824906D01*
X116145093Y-44797969D01*
X116360592Y-44582470D01*
X115767969Y-45713841D02*
X116091218Y-45390592D01*
X115929593Y-45552216D02*
X115363908Y-44986531D01*
X115498595Y-45013468D01*
X115606345Y-45013468D01*
X115687157Y-44986531D01*
X115040659Y-45417529D02*
X114986784Y-45417529D01*
X114905972Y-45444467D01*
X114771285Y-45579154D01*
X114744348Y-45659966D01*
X114744348Y-45713841D01*
X114771285Y-45794653D01*
X114825160Y-45848528D01*
X114932910Y-45902402D01*
X115579407Y-45902402D01*
X115229221Y-46252589D01*
X118900592Y-44189722D02*
X118927529Y-44108910D01*
X119008341Y-44028097D01*
X119116091Y-43974223D01*
X119223841Y-43974223D01*
X119304653Y-44001160D01*
X119439340Y-44081972D01*
X119520152Y-44162784D01*
X119600964Y-44297471D01*
X119627902Y-44378284D01*
X119627902Y-44486033D01*
X119574027Y-44593783D01*
X119520152Y-44647658D01*
X119412402Y-44701532D01*
X119358528Y-44701532D01*
X119169966Y-44512971D01*
X119277715Y-44405221D01*
X119169966Y-44997844D02*
X118604280Y-44432158D01*
X118388781Y-44647658D01*
X118361844Y-44728470D01*
X118361844Y-44782345D01*
X118388781Y-44863157D01*
X118469593Y-44943969D01*
X118550406Y-44970906D01*
X118604280Y-44970906D01*
X118685093Y-44943969D01*
X118900592Y-44728470D01*
X118307969Y-45859841D02*
X118631218Y-45536592D01*
X118469593Y-45698216D02*
X117903908Y-45132531D01*
X118038595Y-45159468D01*
X118146345Y-45159468D01*
X118227157Y-45132531D01*
X117553722Y-45482717D02*
X117203536Y-45832903D01*
X117607597Y-45859841D01*
X117526784Y-45940653D01*
X117499847Y-46021465D01*
X117499847Y-46075340D01*
X117526784Y-46156152D01*
X117661471Y-46290839D01*
X117742284Y-46317776D01*
X117796158Y-46317776D01*
X117876971Y-46290839D01*
X118038595Y-46129215D01*
X118065532Y-46048402D01*
X118065532Y-45994528D01*
X123980592Y-44143722D02*
X124007529Y-44062910D01*
X124088341Y-43982097D01*
X124196091Y-43928223D01*
X124303841Y-43928223D01*
X124384653Y-43955160D01*
X124519340Y-44035972D01*
X124600152Y-44116784D01*
X124680964Y-44251471D01*
X124707902Y-44332284D01*
X124707902Y-44440033D01*
X124654027Y-44547783D01*
X124600152Y-44601658D01*
X124492402Y-44655532D01*
X124438528Y-44655532D01*
X124249966Y-44466971D01*
X124357715Y-44359221D01*
X124249966Y-44951844D02*
X123684280Y-44386158D01*
X123468781Y-44601658D01*
X123441844Y-44682470D01*
X123441844Y-44736345D01*
X123468781Y-44817157D01*
X123549593Y-44897969D01*
X123630406Y-44924906D01*
X123684280Y-44924906D01*
X123765093Y-44897969D01*
X123980592Y-44682470D01*
X123387969Y-45813841D02*
X123711218Y-45490592D01*
X123549593Y-45652216D02*
X122983908Y-45086531D01*
X123118595Y-45113468D01*
X123226345Y-45113468D01*
X123307157Y-45086531D01*
X122525972Y-45921590D02*
X122903096Y-46298714D01*
X122445160Y-45571404D02*
X122983908Y-45840778D01*
X122633722Y-46190964D01*
X126520592Y-44189722D02*
X126547529Y-44108910D01*
X126628341Y-44028097D01*
X126736091Y-43974223D01*
X126843841Y-43974223D01*
X126924653Y-44001160D01*
X127059340Y-44081972D01*
X127140152Y-44162784D01*
X127220964Y-44297471D01*
X127247902Y-44378284D01*
X127247902Y-44486033D01*
X127194027Y-44593783D01*
X127140152Y-44647658D01*
X127032402Y-44701532D01*
X126978528Y-44701532D01*
X126789966Y-44512971D01*
X126897715Y-44405221D01*
X126789966Y-44997844D02*
X126224280Y-44432158D01*
X126008781Y-44647658D01*
X125981844Y-44728470D01*
X125981844Y-44782345D01*
X126008781Y-44863157D01*
X126089593Y-44943969D01*
X126170406Y-44970906D01*
X126224280Y-44970906D01*
X126305093Y-44943969D01*
X126520592Y-44728470D01*
X125927969Y-45859841D02*
X126251218Y-45536592D01*
X126089593Y-45698216D02*
X125523908Y-45132531D01*
X125658595Y-45159468D01*
X125766345Y-45159468D01*
X125847157Y-45132531D01*
X124850473Y-45805966D02*
X125119847Y-45536592D01*
X125416158Y-45779028D01*
X125362284Y-45779028D01*
X125281471Y-45805966D01*
X125146784Y-45940653D01*
X125119847Y-46021465D01*
X125119847Y-46075340D01*
X125146784Y-46156152D01*
X125281471Y-46290839D01*
X125362284Y-46317776D01*
X125416158Y-46317776D01*
X125496971Y-46290839D01*
X125631658Y-46156152D01*
X125658595Y-46075340D01*
X125658595Y-46021465D01*
X126520592Y-70297722D02*
X126547529Y-70216910D01*
X126628341Y-70136097D01*
X126736091Y-70082223D01*
X126843841Y-70082223D01*
X126924653Y-70109160D01*
X127059340Y-70189972D01*
X127140152Y-70270784D01*
X127220964Y-70405471D01*
X127247902Y-70486284D01*
X127247902Y-70594033D01*
X127194027Y-70701783D01*
X127140152Y-70755658D01*
X127032402Y-70809532D01*
X126978528Y-70809532D01*
X126789966Y-70620971D01*
X126897715Y-70513221D01*
X126789966Y-71105844D02*
X126224280Y-70540158D01*
X126008781Y-70755658D01*
X125981844Y-70836470D01*
X125981844Y-70890345D01*
X126008781Y-70971157D01*
X126089593Y-71051969D01*
X126170406Y-71078906D01*
X126224280Y-71078906D01*
X126305093Y-71051969D01*
X126520592Y-70836470D01*
X125927969Y-71967841D02*
X126251218Y-71644592D01*
X126089593Y-71806216D02*
X125523908Y-71240531D01*
X125658595Y-71267468D01*
X125766345Y-71267468D01*
X125847157Y-71240531D01*
X124877410Y-71887028D02*
X124985160Y-71779279D01*
X125065972Y-71752341D01*
X125119847Y-71752341D01*
X125254534Y-71779279D01*
X125389221Y-71860091D01*
X125604720Y-72075590D01*
X125631658Y-72156402D01*
X125631658Y-72210277D01*
X125604720Y-72291089D01*
X125496971Y-72398839D01*
X125416158Y-72425776D01*
X125362284Y-72425776D01*
X125281471Y-72398839D01*
X125146784Y-72264152D01*
X125119847Y-72183340D01*
X125119847Y-72129465D01*
X125146784Y-72048653D01*
X125254534Y-71940903D01*
X125335346Y-71913966D01*
X125389221Y-71913966D01*
X125470033Y-71940903D01*
X123980592Y-70297722D02*
X124007529Y-70216910D01*
X124088341Y-70136097D01*
X124196091Y-70082223D01*
X124303841Y-70082223D01*
X124384653Y-70109160D01*
X124519340Y-70189972D01*
X124600152Y-70270784D01*
X124680964Y-70405471D01*
X124707902Y-70486284D01*
X124707902Y-70594033D01*
X124654027Y-70701783D01*
X124600152Y-70755658D01*
X124492402Y-70809532D01*
X124438528Y-70809532D01*
X124249966Y-70620971D01*
X124357715Y-70513221D01*
X124249966Y-71105844D02*
X123684280Y-70540158D01*
X123468781Y-70755658D01*
X123441844Y-70836470D01*
X123441844Y-70890345D01*
X123468781Y-70971157D01*
X123549593Y-71051969D01*
X123630406Y-71078906D01*
X123684280Y-71078906D01*
X123765093Y-71051969D01*
X123980592Y-70836470D01*
X123387969Y-71967841D02*
X123711218Y-71644592D01*
X123549593Y-71806216D02*
X122983908Y-71240531D01*
X123118595Y-71267468D01*
X123226345Y-71267468D01*
X123307157Y-71240531D01*
X122633722Y-71590717D02*
X122256598Y-71967841D01*
X123064720Y-72291089D01*
X118900592Y-70297722D02*
X118927529Y-70216910D01*
X119008341Y-70136097D01*
X119116091Y-70082223D01*
X119223841Y-70082223D01*
X119304653Y-70109160D01*
X119439340Y-70189972D01*
X119520152Y-70270784D01*
X119600964Y-70405471D01*
X119627902Y-70486284D01*
X119627902Y-70594033D01*
X119574027Y-70701783D01*
X119520152Y-70755658D01*
X119412402Y-70809532D01*
X119358528Y-70809532D01*
X119169966Y-70620971D01*
X119277715Y-70513221D01*
X119169966Y-71105844D02*
X118604280Y-70540158D01*
X118388781Y-70755658D01*
X118361844Y-70836470D01*
X118361844Y-70890345D01*
X118388781Y-70971157D01*
X118469593Y-71051969D01*
X118550406Y-71078906D01*
X118604280Y-71078906D01*
X118685093Y-71051969D01*
X118900592Y-70836470D01*
X118307969Y-71967841D02*
X118631218Y-71644592D01*
X118469593Y-71806216D02*
X117903908Y-71240531D01*
X118038595Y-71267468D01*
X118146345Y-71267468D01*
X118227157Y-71240531D01*
X117661471Y-71967841D02*
X117688409Y-71887028D01*
X117688409Y-71833154D01*
X117661471Y-71752341D01*
X117634534Y-71725404D01*
X117553722Y-71698467D01*
X117499847Y-71698467D01*
X117419035Y-71725404D01*
X117311285Y-71833154D01*
X117284348Y-71913966D01*
X117284348Y-71967841D01*
X117311285Y-72048653D01*
X117338223Y-72075590D01*
X117419035Y-72102528D01*
X117472910Y-72102528D01*
X117553722Y-72075590D01*
X117661471Y-71967841D01*
X117742284Y-71940903D01*
X117796158Y-71940903D01*
X117876971Y-71967841D01*
X117984720Y-72075590D01*
X118011658Y-72156402D01*
X118011658Y-72210277D01*
X117984720Y-72291089D01*
X117876971Y-72398839D01*
X117796158Y-72425776D01*
X117742284Y-72425776D01*
X117661471Y-72398839D01*
X117553722Y-72291089D01*
X117526784Y-72210277D01*
X117526784Y-72156402D01*
X117553722Y-72075590D01*
X116360592Y-70297722D02*
X116387529Y-70216910D01*
X116468341Y-70136097D01*
X116576091Y-70082223D01*
X116683841Y-70082223D01*
X116764653Y-70109160D01*
X116899340Y-70189972D01*
X116980152Y-70270784D01*
X117060964Y-70405471D01*
X117087902Y-70486284D01*
X117087902Y-70594033D01*
X117034027Y-70701783D01*
X116980152Y-70755658D01*
X116872402Y-70809532D01*
X116818528Y-70809532D01*
X116629966Y-70620971D01*
X116737715Y-70513221D01*
X116629966Y-71105844D02*
X116064280Y-70540158D01*
X115848781Y-70755658D01*
X115821844Y-70836470D01*
X115821844Y-70890345D01*
X115848781Y-70971157D01*
X115929593Y-71051969D01*
X116010406Y-71078906D01*
X116064280Y-71078906D01*
X116145093Y-71051969D01*
X116360592Y-70836470D01*
X115767969Y-71967841D02*
X116091218Y-71644592D01*
X115929593Y-71806216D02*
X115363908Y-71240531D01*
X115498595Y-71267468D01*
X115606345Y-71267468D01*
X115687157Y-71240531D01*
X115498595Y-72237215D02*
X115390845Y-72344964D01*
X115310033Y-72371902D01*
X115256158Y-72371902D01*
X115121471Y-72344964D01*
X114986784Y-72264152D01*
X114771285Y-72048653D01*
X114744348Y-71967841D01*
X114744348Y-71913966D01*
X114771285Y-71833154D01*
X114879035Y-71725404D01*
X114959847Y-71698467D01*
X115013722Y-71698467D01*
X115094534Y-71725404D01*
X115229221Y-71860091D01*
X115256158Y-71940903D01*
X115256158Y-71994778D01*
X115229221Y-72075590D01*
X115121471Y-72183340D01*
X115040659Y-72210277D01*
X114986784Y-72210277D01*
X114905972Y-72183340D01*
X113820592Y-70297722D02*
X113847529Y-70216910D01*
X113928341Y-70136097D01*
X114036091Y-70082223D01*
X114143841Y-70082223D01*
X114224653Y-70109160D01*
X114359340Y-70189972D01*
X114440152Y-70270784D01*
X114520964Y-70405471D01*
X114547902Y-70486284D01*
X114547902Y-70594033D01*
X114494027Y-70701783D01*
X114440152Y-70755658D01*
X114332402Y-70809532D01*
X114278528Y-70809532D01*
X114089966Y-70620971D01*
X114197715Y-70513221D01*
X114089966Y-71105844D02*
X113524280Y-70540158D01*
X113308781Y-70755658D01*
X113281844Y-70836470D01*
X113281844Y-70890345D01*
X113308781Y-70971157D01*
X113389593Y-71051969D01*
X113470406Y-71078906D01*
X113524280Y-71078906D01*
X113605093Y-71051969D01*
X113820592Y-70836470D01*
X113039407Y-71132781D02*
X112985532Y-71132781D01*
X112904720Y-71159719D01*
X112770033Y-71294406D01*
X112743096Y-71375218D01*
X112743096Y-71429093D01*
X112770033Y-71509905D01*
X112823908Y-71563780D01*
X112931658Y-71617654D01*
X113578155Y-71617654D01*
X113227969Y-71967841D01*
X112312097Y-71752341D02*
X112258223Y-71806216D01*
X112231285Y-71887028D01*
X112231285Y-71940903D01*
X112258223Y-72021715D01*
X112339035Y-72156402D01*
X112473722Y-72291089D01*
X112608409Y-72371902D01*
X112689221Y-72398839D01*
X112743096Y-72398839D01*
X112823908Y-72371902D01*
X112877783Y-72318027D01*
X112904720Y-72237215D01*
X112904720Y-72183340D01*
X112877783Y-72102528D01*
X112796971Y-71967841D01*
X112662284Y-71833154D01*
X112527597Y-71752341D01*
X112446784Y-71725404D01*
X112392910Y-71725404D01*
X112312097Y-71752341D01*
X111290592Y-70297722D02*
X111317529Y-70216910D01*
X111398341Y-70136097D01*
X111506091Y-70082223D01*
X111613841Y-70082223D01*
X111694653Y-70109160D01*
X111829340Y-70189972D01*
X111910152Y-70270784D01*
X111990964Y-70405471D01*
X112017902Y-70486284D01*
X112017902Y-70594033D01*
X111964027Y-70701783D01*
X111910152Y-70755658D01*
X111802402Y-70809532D01*
X111748528Y-70809532D01*
X111559966Y-70620971D01*
X111667715Y-70513221D01*
X111559966Y-71105844D02*
X110994280Y-70540158D01*
X110778781Y-70755658D01*
X110751844Y-70836470D01*
X110751844Y-70890345D01*
X110778781Y-70971157D01*
X110859593Y-71051969D01*
X110940406Y-71078906D01*
X110994280Y-71078906D01*
X111075093Y-71051969D01*
X111290592Y-70836470D01*
X110509407Y-71132781D02*
X110455532Y-71132781D01*
X110374720Y-71159719D01*
X110240033Y-71294406D01*
X110213096Y-71375218D01*
X110213096Y-71429093D01*
X110240033Y-71509905D01*
X110293908Y-71563780D01*
X110401658Y-71617654D01*
X111048155Y-71617654D01*
X110697969Y-71967841D01*
X110159221Y-72506589D02*
X110482470Y-72183340D01*
X110320845Y-72344964D02*
X109755160Y-71779279D01*
X109889847Y-71806216D01*
X109997597Y-71806216D01*
X110078409Y-71779279D01*
X106200592Y-70297722D02*
X106227529Y-70216910D01*
X106308341Y-70136097D01*
X106416091Y-70082223D01*
X106523841Y-70082223D01*
X106604653Y-70109160D01*
X106739340Y-70189972D01*
X106820152Y-70270784D01*
X106900964Y-70405471D01*
X106927902Y-70486284D01*
X106927902Y-70594033D01*
X106874027Y-70701783D01*
X106820152Y-70755658D01*
X106712402Y-70809532D01*
X106658528Y-70809532D01*
X106469966Y-70620971D01*
X106577715Y-70513221D01*
X106469966Y-71105844D02*
X105904280Y-70540158D01*
X105688781Y-70755658D01*
X105661844Y-70836470D01*
X105661844Y-70890345D01*
X105688781Y-70971157D01*
X105769593Y-71051969D01*
X105850406Y-71078906D01*
X105904280Y-71078906D01*
X105985093Y-71051969D01*
X106200592Y-70836470D01*
X105419407Y-71132781D02*
X105365532Y-71132781D01*
X105284720Y-71159719D01*
X105150033Y-71294406D01*
X105123096Y-71375218D01*
X105123096Y-71429093D01*
X105150033Y-71509905D01*
X105203908Y-71563780D01*
X105311658Y-71617654D01*
X105958155Y-71617654D01*
X105607969Y-71967841D01*
X104880659Y-71671529D02*
X104826784Y-71671529D01*
X104745972Y-71698467D01*
X104611285Y-71833154D01*
X104584348Y-71913966D01*
X104584348Y-71967841D01*
X104611285Y-72048653D01*
X104665160Y-72102528D01*
X104772910Y-72156402D01*
X105419407Y-72156402D01*
X105069221Y-72506589D01*
X103943435Y-71038375D02*
X103862622Y-70580439D01*
X104266683Y-70715126D02*
X103700998Y-70149441D01*
X103485499Y-70364940D01*
X103458561Y-70445752D01*
X103458561Y-70499627D01*
X103485499Y-70580439D01*
X103566311Y-70661251D01*
X103647123Y-70688189D01*
X103700998Y-70688189D01*
X103781810Y-70661251D01*
X103997309Y-70445752D01*
X103135312Y-70715126D02*
X103593248Y-71173062D01*
X103620186Y-71253874D01*
X103620186Y-71307749D01*
X103593248Y-71388561D01*
X103485499Y-71496311D01*
X103404687Y-71523248D01*
X103350812Y-71523248D01*
X103270000Y-71496311D01*
X102812064Y-71038375D01*
X103108375Y-71873435D02*
X102542690Y-71307749D01*
X102785126Y-72196683D01*
X102219441Y-71630998D01*
X101120592Y-70297722D02*
X101147529Y-70216910D01*
X101228341Y-70136097D01*
X101336091Y-70082223D01*
X101443841Y-70082223D01*
X101524653Y-70109160D01*
X101659340Y-70189972D01*
X101740152Y-70270784D01*
X101820964Y-70405471D01*
X101847902Y-70486284D01*
X101847902Y-70594033D01*
X101794027Y-70701783D01*
X101740152Y-70755658D01*
X101632402Y-70809532D01*
X101578528Y-70809532D01*
X101389966Y-70620971D01*
X101497715Y-70513221D01*
X101389966Y-71105844D02*
X100824280Y-70540158D01*
X100608781Y-70755658D01*
X100581844Y-70836470D01*
X100581844Y-70890345D01*
X100608781Y-70971157D01*
X100689593Y-71051969D01*
X100770406Y-71078906D01*
X100824280Y-71078906D01*
X100905093Y-71051969D01*
X101120592Y-70836470D01*
X100339407Y-71132781D02*
X100285532Y-71132781D01*
X100204720Y-71159719D01*
X100070033Y-71294406D01*
X100043096Y-71375218D01*
X100043096Y-71429093D01*
X100070033Y-71509905D01*
X100123908Y-71563780D01*
X100231658Y-71617654D01*
X100878155Y-71617654D01*
X100527969Y-71967841D01*
X99477410Y-71887028D02*
X99585160Y-71779279D01*
X99665972Y-71752341D01*
X99719847Y-71752341D01*
X99854534Y-71779279D01*
X99989221Y-71860091D01*
X100204720Y-72075590D01*
X100231658Y-72156402D01*
X100231658Y-72210277D01*
X100204720Y-72291089D01*
X100096971Y-72398839D01*
X100016158Y-72425776D01*
X99962284Y-72425776D01*
X99881471Y-72398839D01*
X99746784Y-72264152D01*
X99719847Y-72183340D01*
X99719847Y-72129465D01*
X99746784Y-72048653D01*
X99854534Y-71940903D01*
X99935346Y-71913966D01*
X99989221Y-71913966D01*
X100070033Y-71940903D01*
X98590592Y-70297722D02*
X98617529Y-70216910D01*
X98698341Y-70136097D01*
X98806091Y-70082223D01*
X98913841Y-70082223D01*
X98994653Y-70109160D01*
X99129340Y-70189972D01*
X99210152Y-70270784D01*
X99290964Y-70405471D01*
X99317902Y-70486284D01*
X99317902Y-70594033D01*
X99264027Y-70701783D01*
X99210152Y-70755658D01*
X99102402Y-70809532D01*
X99048528Y-70809532D01*
X98859966Y-70620971D01*
X98967715Y-70513221D01*
X98859966Y-71105844D02*
X98294280Y-70540158D01*
X98078781Y-70755658D01*
X98051844Y-70836470D01*
X98051844Y-70890345D01*
X98078781Y-70971157D01*
X98159593Y-71051969D01*
X98240406Y-71078906D01*
X98294280Y-71078906D01*
X98375093Y-71051969D01*
X98590592Y-70836470D01*
X97809407Y-71132781D02*
X97755532Y-71132781D01*
X97674720Y-71159719D01*
X97540033Y-71294406D01*
X97513096Y-71375218D01*
X97513096Y-71429093D01*
X97540033Y-71509905D01*
X97593908Y-71563780D01*
X97701658Y-71617654D01*
X98348155Y-71617654D01*
X97997969Y-71967841D01*
X97243722Y-71590717D02*
X96866598Y-71967841D01*
X97674720Y-72291089D01*
X93246592Y-70297722D02*
X93273529Y-70216910D01*
X93354341Y-70136097D01*
X93462091Y-70082223D01*
X93569841Y-70082223D01*
X93650653Y-70109160D01*
X93785340Y-70189972D01*
X93866152Y-70270784D01*
X93946964Y-70405471D01*
X93973902Y-70486284D01*
X93973902Y-70594033D01*
X93920027Y-70701783D01*
X93866152Y-70755658D01*
X93758402Y-70809532D01*
X93704528Y-70809532D01*
X93515966Y-70620971D01*
X93623715Y-70513221D01*
X93515966Y-71105844D02*
X92950280Y-70540158D01*
X92734781Y-70755658D01*
X92707844Y-70836470D01*
X92707844Y-70890345D01*
X92734781Y-70971157D01*
X92815593Y-71051969D01*
X92896406Y-71078906D01*
X92950280Y-71078906D01*
X93031093Y-71051969D01*
X93246592Y-70836470D01*
X92465407Y-71132781D02*
X92411532Y-71132781D01*
X92330720Y-71159719D01*
X92196033Y-71294406D01*
X92169096Y-71375218D01*
X92169096Y-71429093D01*
X92196033Y-71509905D01*
X92249908Y-71563780D01*
X92357658Y-71617654D01*
X93004155Y-71617654D01*
X92653969Y-71967841D01*
X92007471Y-71967841D02*
X92034409Y-71887028D01*
X92034409Y-71833154D01*
X92007471Y-71752341D01*
X91980534Y-71725404D01*
X91899722Y-71698467D01*
X91845847Y-71698467D01*
X91765035Y-71725404D01*
X91657285Y-71833154D01*
X91630348Y-71913966D01*
X91630348Y-71967841D01*
X91657285Y-72048653D01*
X91684223Y-72075590D01*
X91765035Y-72102528D01*
X91818910Y-72102528D01*
X91899722Y-72075590D01*
X92007471Y-71967841D01*
X92088284Y-71940903D01*
X92142158Y-71940903D01*
X92222971Y-71967841D01*
X92330720Y-72075590D01*
X92357658Y-72156402D01*
X92357658Y-72210277D01*
X92330720Y-72291089D01*
X92222971Y-72398839D01*
X92142158Y-72425776D01*
X92088284Y-72425776D01*
X92007471Y-72398839D01*
X91899722Y-72291089D01*
X91872784Y-72210277D01*
X91872784Y-72156402D01*
X91899722Y-72075590D01*
X91533773Y-70354788D02*
X91264399Y-70624162D01*
X91749272Y-70462537D02*
X90995025Y-70085414D01*
X91372149Y-70839661D01*
X91183587Y-71028223D02*
X90617902Y-70462537D01*
X90483215Y-70597224D01*
X90429340Y-70704974D01*
X90429340Y-70812723D01*
X90456277Y-70893536D01*
X90537089Y-71028223D01*
X90617902Y-71109035D01*
X90752589Y-71189847D01*
X90833401Y-71216784D01*
X90941150Y-71216784D01*
X91048900Y-71162910D01*
X91183587Y-71028223D01*
X90240778Y-71863282D02*
X90294653Y-71863282D01*
X90402402Y-71809407D01*
X90456277Y-71755532D01*
X90510152Y-71647783D01*
X90510152Y-71540033D01*
X90483215Y-71459221D01*
X90402402Y-71324534D01*
X90321590Y-71243722D01*
X90186903Y-71162910D01*
X90106091Y-71135972D01*
X89998341Y-71135972D01*
X89890592Y-71189847D01*
X89836717Y-71243722D01*
X89782842Y-71351471D01*
X89782842Y-71405346D01*
X90240778Y-72078781D02*
X89809780Y-72509780D01*
X89136345Y-71944094D02*
X89513468Y-72698341D01*
X88759221Y-72321218D01*
X88813096Y-73398714D02*
X88732284Y-72940778D01*
X89136345Y-73075465D02*
X88570659Y-72509780D01*
X88355160Y-72725279D01*
X88328223Y-72806091D01*
X88328223Y-72859966D01*
X88355160Y-72940778D01*
X88435972Y-73021590D01*
X88516784Y-73048528D01*
X88570659Y-73048528D01*
X88651471Y-73021590D01*
X88866971Y-72806091D01*
X88274348Y-73344839D02*
X88085786Y-73533401D01*
X88301285Y-73910524D02*
X88570659Y-73641150D01*
X88004974Y-73075465D01*
X87735600Y-73344839D01*
X87573975Y-74045211D02*
X87762537Y-73856650D01*
X88058849Y-74152961D02*
X87493163Y-73587276D01*
X87223789Y-73856650D01*
X88490592Y-70089847D02*
X88140406Y-70440033D01*
X88544467Y-70466971D01*
X88463654Y-70547783D01*
X88436717Y-70628595D01*
X88436717Y-70682470D01*
X88463654Y-70763282D01*
X88598341Y-70897969D01*
X88679154Y-70924906D01*
X88733028Y-70924906D01*
X88813841Y-70897969D01*
X88975465Y-70736345D01*
X89002402Y-70655532D01*
X89002402Y-70601658D01*
X87978781Y-70601658D02*
X88355905Y-71355905D01*
X87601658Y-70978781D01*
X87466971Y-71113468D02*
X87116784Y-71463654D01*
X87520845Y-71490592D01*
X87440033Y-71571404D01*
X87413096Y-71652216D01*
X87413096Y-71706091D01*
X87440033Y-71786903D01*
X87574720Y-71921590D01*
X87655532Y-71948528D01*
X87709407Y-71948528D01*
X87790219Y-71921590D01*
X87951844Y-71759966D01*
X87978781Y-71679154D01*
X87978781Y-71625279D01*
X85958308Y-70122131D02*
X85608122Y-70472317D01*
X86012183Y-70499255D01*
X85931370Y-70580067D01*
X85904433Y-70660879D01*
X85904433Y-70714754D01*
X85931370Y-70795566D01*
X86066057Y-70930253D01*
X86146870Y-70957190D01*
X86200744Y-70957190D01*
X86281557Y-70930253D01*
X86443181Y-70768629D01*
X86470118Y-70687816D01*
X86470118Y-70633942D01*
X85446497Y-70633942D02*
X85823621Y-71388189D01*
X85069374Y-71011065D01*
X84934687Y-71145752D02*
X84584500Y-71495938D01*
X84988561Y-71522876D01*
X84907749Y-71603688D01*
X84880812Y-71684500D01*
X84880812Y-71738375D01*
X84907749Y-71819187D01*
X85042436Y-71953874D01*
X85123248Y-71980812D01*
X85177123Y-71980812D01*
X85257935Y-71953874D01*
X85419560Y-71792250D01*
X85446497Y-71711438D01*
X85446497Y-71657563D01*
X85096311Y-72223248D02*
X84665312Y-72654247D01*
X84180439Y-72438748D02*
X83991877Y-72627309D01*
X84207377Y-73004433D02*
X84476751Y-72735059D01*
X83911065Y-72169374D01*
X83641691Y-72438748D01*
X83964940Y-73246870D02*
X83399255Y-72681184D01*
X83641691Y-73570118D01*
X83076006Y-73004433D01*
X81069966Y-70120473D02*
X81447089Y-70874720D01*
X80692842Y-70497597D01*
X81069966Y-71197969D02*
X81016091Y-71305719D01*
X80881404Y-71440406D01*
X80800592Y-71467343D01*
X80746717Y-71467343D01*
X80665905Y-71440406D01*
X80612030Y-71386531D01*
X80585093Y-71305719D01*
X80585093Y-71251844D01*
X80612030Y-71171032D01*
X80692842Y-71036345D01*
X80719780Y-70955532D01*
X80719780Y-70901658D01*
X80692842Y-70820845D01*
X80638967Y-70766971D01*
X80558155Y-70740033D01*
X80504280Y-70740033D01*
X80423468Y-70766971D01*
X80288781Y-70901658D01*
X80234906Y-71009407D01*
X80154094Y-71628967D02*
X80423468Y-71898341D01*
X80046345Y-71144094D02*
X80154094Y-71628967D01*
X79669221Y-71521218D01*
X80046345Y-72221590D02*
X79992470Y-72329340D01*
X79857783Y-72464027D01*
X79776971Y-72490964D01*
X79723096Y-72490964D01*
X79642284Y-72464027D01*
X79588409Y-72410152D01*
X79561471Y-72329340D01*
X79561471Y-72275465D01*
X79588409Y-72194653D01*
X79669221Y-72059966D01*
X79696158Y-71979154D01*
X79696158Y-71925279D01*
X79669221Y-71844467D01*
X79615346Y-71790592D01*
X79534534Y-71763654D01*
X79480659Y-71763654D01*
X79399847Y-71790592D01*
X79265160Y-71925279D01*
X79211285Y-72033028D01*
X78527309Y-70153129D02*
X78904433Y-70907377D01*
X78150186Y-70530253D01*
X78042436Y-71176751D02*
X77988561Y-71284500D01*
X77988561Y-71338375D01*
X78015499Y-71419187D01*
X78096311Y-71500000D01*
X78177123Y-71526937D01*
X78230998Y-71526937D01*
X78311810Y-71500000D01*
X78527309Y-71284500D01*
X77961624Y-70718815D01*
X77773062Y-70907377D01*
X77746125Y-70988189D01*
X77746125Y-71042064D01*
X77773062Y-71122876D01*
X77826937Y-71176751D01*
X77907749Y-71203688D01*
X77961624Y-71203688D01*
X78042436Y-71176751D01*
X78230998Y-70988189D01*
X77395938Y-71284500D02*
X77853874Y-71742436D01*
X77880812Y-71823248D01*
X77880812Y-71877123D01*
X77853874Y-71957935D01*
X77746125Y-72065685D01*
X77665312Y-72092622D01*
X77611438Y-72092622D01*
X77530625Y-72065685D01*
X77072690Y-71607749D01*
X77369001Y-72388934D02*
X77315126Y-72496683D01*
X77180439Y-72631370D01*
X77099627Y-72658308D01*
X77045752Y-72658308D01*
X76964940Y-72631370D01*
X76911065Y-72577496D01*
X76884128Y-72496683D01*
X76884128Y-72442809D01*
X76911065Y-72361996D01*
X76991877Y-72227309D01*
X77018815Y-72146497D01*
X77018815Y-72092622D01*
X76991877Y-72011810D01*
X76938003Y-71957935D01*
X76857190Y-71930998D01*
X76803316Y-71930998D01*
X76722503Y-71957935D01*
X76587816Y-72092622D01*
X76533942Y-72200372D01*
X83098155Y-44686158D02*
X83125093Y-44605346D01*
X83205905Y-44524534D01*
X83313654Y-44470659D01*
X83421404Y-44470659D01*
X83502216Y-44497597D01*
X83636903Y-44578409D01*
X83717715Y-44659221D01*
X83798528Y-44793908D01*
X83825465Y-44874720D01*
X83825465Y-44982470D01*
X83771590Y-45090219D01*
X83717715Y-45144094D01*
X83609966Y-45197969D01*
X83556091Y-45197969D01*
X83367529Y-45009407D01*
X83475279Y-44901658D01*
X83367529Y-45494280D02*
X82801844Y-44928595D01*
X83044280Y-45817529D01*
X82478595Y-45251844D01*
X82774906Y-46086903D02*
X82209221Y-45521218D01*
X82074534Y-45655905D01*
X82020659Y-45763654D01*
X82020659Y-45871404D01*
X82047597Y-45952216D01*
X82128409Y-46086903D01*
X82209221Y-46167715D01*
X82343908Y-46248528D01*
X82424720Y-46275465D01*
X82532470Y-46275465D01*
X82640219Y-46221590D01*
X82774906Y-46086903D01*
X95798155Y-44686158D02*
X95825093Y-44605346D01*
X95905905Y-44524534D01*
X96013654Y-44470659D01*
X96121404Y-44470659D01*
X96202216Y-44497597D01*
X96336903Y-44578409D01*
X96417715Y-44659221D01*
X96498528Y-44793908D01*
X96525465Y-44874720D01*
X96525465Y-44982470D01*
X96471590Y-45090219D01*
X96417715Y-45144094D01*
X96309966Y-45197969D01*
X96256091Y-45197969D01*
X96067529Y-45009407D01*
X96175279Y-44901658D01*
X96067529Y-45494280D02*
X95501844Y-44928595D01*
X95744280Y-45817529D01*
X95178595Y-45251844D01*
X95474906Y-46086903D02*
X94909221Y-45521218D01*
X94774534Y-45655905D01*
X94720659Y-45763654D01*
X94720659Y-45871404D01*
X94747597Y-45952216D01*
X94828409Y-46086903D01*
X94909221Y-46167715D01*
X95043908Y-46248528D01*
X95124720Y-46275465D01*
X95232470Y-46275465D01*
X95340219Y-46221590D01*
X95474906Y-46086903D01*
X108498155Y-44686158D02*
X108525093Y-44605346D01*
X108605905Y-44524534D01*
X108713654Y-44470659D01*
X108821404Y-44470659D01*
X108902216Y-44497597D01*
X109036903Y-44578409D01*
X109117715Y-44659221D01*
X109198528Y-44793908D01*
X109225465Y-44874720D01*
X109225465Y-44982470D01*
X109171590Y-45090219D01*
X109117715Y-45144094D01*
X109009966Y-45197969D01*
X108956091Y-45197969D01*
X108767529Y-45009407D01*
X108875279Y-44901658D01*
X108767529Y-45494280D02*
X108201844Y-44928595D01*
X108444280Y-45817529D01*
X107878595Y-45251844D01*
X108174906Y-46086903D02*
X107609221Y-45521218D01*
X107474534Y-45655905D01*
X107420659Y-45763654D01*
X107420659Y-45871404D01*
X107447597Y-45952216D01*
X107528409Y-46086903D01*
X107609221Y-46167715D01*
X107743908Y-46248528D01*
X107824720Y-46275465D01*
X107932470Y-46275465D01*
X108040219Y-46221590D01*
X108174906Y-46086903D01*
X121198155Y-44686158D02*
X121225093Y-44605346D01*
X121305905Y-44524534D01*
X121413654Y-44470659D01*
X121521404Y-44470659D01*
X121602216Y-44497597D01*
X121736903Y-44578409D01*
X121817715Y-44659221D01*
X121898528Y-44793908D01*
X121925465Y-44874720D01*
X121925465Y-44982470D01*
X121871590Y-45090219D01*
X121817715Y-45144094D01*
X121709966Y-45197969D01*
X121656091Y-45197969D01*
X121467529Y-45009407D01*
X121575279Y-44901658D01*
X121467529Y-45494280D02*
X120901844Y-44928595D01*
X121144280Y-45817529D01*
X120578595Y-45251844D01*
X120874906Y-46086903D02*
X120309221Y-45521218D01*
X120174534Y-45655905D01*
X120120659Y-45763654D01*
X120120659Y-45871404D01*
X120147597Y-45952216D01*
X120228409Y-46086903D01*
X120309221Y-46167715D01*
X120443908Y-46248528D01*
X120524720Y-46275465D01*
X120632470Y-46275465D01*
X120740219Y-46221590D01*
X120874906Y-46086903D01*
X121198155Y-70286158D02*
X121225093Y-70205346D01*
X121305905Y-70124534D01*
X121413654Y-70070659D01*
X121521404Y-70070659D01*
X121602216Y-70097597D01*
X121736903Y-70178409D01*
X121817715Y-70259221D01*
X121898528Y-70393908D01*
X121925465Y-70474720D01*
X121925465Y-70582470D01*
X121871590Y-70690219D01*
X121817715Y-70744094D01*
X121709966Y-70797969D01*
X121656091Y-70797969D01*
X121467529Y-70609407D01*
X121575279Y-70501658D01*
X121467529Y-71094280D02*
X120901844Y-70528595D01*
X121144280Y-71417529D01*
X120578595Y-70851844D01*
X120874906Y-71686903D02*
X120309221Y-71121218D01*
X120174534Y-71255905D01*
X120120659Y-71363654D01*
X120120659Y-71471404D01*
X120147597Y-71552216D01*
X120228409Y-71686903D01*
X120309221Y-71767715D01*
X120443908Y-71848528D01*
X120524720Y-71875465D01*
X120632470Y-71875465D01*
X120740219Y-71821590D01*
X120874906Y-71686903D01*
X108498155Y-70286158D02*
X108525093Y-70205346D01*
X108605905Y-70124534D01*
X108713654Y-70070659D01*
X108821404Y-70070659D01*
X108902216Y-70097597D01*
X109036903Y-70178409D01*
X109117715Y-70259221D01*
X109198528Y-70393908D01*
X109225465Y-70474720D01*
X109225465Y-70582470D01*
X109171590Y-70690219D01*
X109117715Y-70744094D01*
X109009966Y-70797969D01*
X108956091Y-70797969D01*
X108767529Y-70609407D01*
X108875279Y-70501658D01*
X108767529Y-71094280D02*
X108201844Y-70528595D01*
X108444280Y-71417529D01*
X107878595Y-70851844D01*
X108174906Y-71686903D02*
X107609221Y-71121218D01*
X107474534Y-71255905D01*
X107420659Y-71363654D01*
X107420659Y-71471404D01*
X107447597Y-71552216D01*
X107528409Y-71686903D01*
X107609221Y-71767715D01*
X107743908Y-71848528D01*
X107824720Y-71875465D01*
X107932470Y-71875465D01*
X108040219Y-71821590D01*
X108174906Y-71686903D01*
X83098155Y-70286158D02*
X83125093Y-70205346D01*
X83205905Y-70124534D01*
X83313654Y-70070659D01*
X83421404Y-70070659D01*
X83502216Y-70097597D01*
X83636903Y-70178409D01*
X83717715Y-70259221D01*
X83798528Y-70393908D01*
X83825465Y-70474720D01*
X83825465Y-70582470D01*
X83771590Y-70690219D01*
X83717715Y-70744094D01*
X83609966Y-70797969D01*
X83556091Y-70797969D01*
X83367529Y-70609407D01*
X83475279Y-70501658D01*
X83367529Y-71094280D02*
X82801844Y-70528595D01*
X83044280Y-71417529D01*
X82478595Y-70851844D01*
X82774906Y-71686903D02*
X82209221Y-71121218D01*
X82074534Y-71255905D01*
X82020659Y-71363654D01*
X82020659Y-71471404D01*
X82047597Y-71552216D01*
X82128409Y-71686903D01*
X82209221Y-71767715D01*
X82343908Y-71848528D01*
X82424720Y-71875465D01*
X82532470Y-71875465D01*
X82640219Y-71821590D01*
X82774906Y-71686903D01*
X96740964Y-70351597D02*
X96471590Y-70620971D01*
X96956463Y-70459346D02*
X96202216Y-70082223D01*
X96579340Y-70836470D01*
X95555719Y-70782595D02*
X95582656Y-70701783D01*
X95663468Y-70620971D01*
X95771218Y-70567096D01*
X95878967Y-70567096D01*
X95959780Y-70594033D01*
X96094467Y-70674845D01*
X96175279Y-70755658D01*
X96256091Y-70890345D01*
X96283028Y-70971157D01*
X96283028Y-71078906D01*
X96229154Y-71186656D01*
X96175279Y-71240531D01*
X96067529Y-71294406D01*
X96013654Y-71294406D01*
X95825093Y-71105844D01*
X95932842Y-70998094D01*
X95825093Y-71590717D02*
X95259407Y-71025032D01*
X95501844Y-71913966D01*
X94936158Y-71348280D01*
X95232470Y-72183340D02*
X94666784Y-71617654D01*
X94532097Y-71752341D01*
X94478223Y-71860091D01*
X94478223Y-71967841D01*
X94505160Y-72048653D01*
X94585972Y-72183340D01*
X94666784Y-72264152D01*
X94801471Y-72344964D01*
X94882284Y-72371902D01*
X94990033Y-72371902D01*
X95097783Y-72318027D01*
X95232470Y-72183340D01*
M02*
